<svg xmlns="http://www.w3.org/2000/svg" width="266.249" height="33.655" viewBox="0 0 266.249 33.655">
  <g id="banner-content-media" transform="translate(-827.203 -468.797)">
    <g id="Group_6" data-name="Group 6" transform="translate(792.588 1476.995) rotate(-90)">
      <g id="Group_5" data-name="Group 5">
        <path id="Path_6" data-name="Path 6" d="M978.548,167.864l-.4-.172a174.982,174.982,0,0,0,12.649-47.082c3.5-28.356-.459-54.95-11.449-76.906l.393-.2c11.029,22.034,15,48.715,11.492,77.157A175.459,175.459,0,0,1,978.548,167.864Z" fill="#feccae"/>
      </g>
      <path id="Path_7" data-name="Path 7" d="M980.722,40.774a31.322,31.322,0,0,1-1.054,3.314,18.131,18.131,0,0,1-2.652-1.657,7.665,7.665,0,0,1-1.534-1.54,5.35,5.35,0,0,1-.609-1.048c-.878-1.991.047-4.872,2.2-5.2,1.961-.293,3.642,1.7,3.847,3.676a1.337,1.337,0,0,1,.011.141A7.482,7.482,0,0,1,980.722,40.774Z" fill="#feccae"/>
      <path id="Path_8" data-name="Path 8" d="M988.673,47.355a1.735,1.735,0,0,1-.474,1.463,2.137,2.137,0,0,1-1.429.363c-.058,0-.117-.005-.169-.005-.375-.006-.744-.018-1.113-.024-.4-.012-.8-.017-1.194-.029-.791-.018-2.295-.106-2.723-.767-.228-.357.328-.814.393-1.236a.546.546,0,0,1,.029-.14,3.243,3.243,0,0,1,1-1.78,3.406,3.406,0,0,1,2.43-.972A3.5,3.5,0,0,1,988.673,47.355Z" fill="#feccae"/>
      <path id="Path_9" data-name="Path 9" d="M983.462,52.665a7.342,7.342,0,0,1-2.628,3.4,7.876,7.876,0,0,1-1.868,1,7.117,7.117,0,0,1-2.84.451,6.38,6.38,0,0,1,2.383-3.542,6.994,6.994,0,0,1,2.565-1.218A6.051,6.051,0,0,1,983.462,52.665Z" fill="#feccae"/>
      <path id="Path_10" data-name="Path 10" d="M991.566,57.7a2.245,2.245,0,0,0-2.179,1.066,6.621,6.621,0,0,0-.843,2.406c-.041.194-.081.392-.122.586-.065.281-.123.562-.182.843q-.316,1.465-.62,2.933a7.733,7.733,0,0,1-2.454-2.494,8.145,8.145,0,0,1-.6-1.142,7.745,7.745,0,0,1-.615-2.833,6.03,6.03,0,0,1,1.593-4.391,4.091,4.091,0,0,1,4.414-.967A3.117,3.117,0,0,1,991.566,57.7Z" fill="#feccae"/>
      <path id="Path_11" data-name="Path 11" d="M996.373,69.387a.929.929,0,0,1-.129.041,3.365,3.365,0,0,1-.586.111c-.293.024-.591.024-.884.035a11.715,11.715,0,0,0-5.5,1.634c.059-.334.124-.668.2-1,.036-.181.077-.363.123-.544a10.151,10.151,0,0,1,.943-2.518,5.36,5.36,0,0,1,3.173-2.681,3.425,3.425,0,0,1,3.754,1.34A2.535,2.535,0,0,1,996.373,69.387Z" fill="#feccae"/>
      <path id="Path_12" data-name="Path 12" d="M990.26,76.12a7.8,7.8,0,0,1-2.863-.884,7.631,7.631,0,0,1-1.031-.656c-.1-.07-.193-.146-.286-.222a5.156,5.156,0,0,1-2.015-4.983c1.165-.416,2.237.761,2.922,1.792.234.351.468.708.7,1.059.264.4.534.8.8,1.207Q989.374,74.776,990.26,76.12Z" fill="#feccae"/>
      <path id="Path_13" data-name="Path 13" d="M991.115,85.412a7.573,7.573,0,0,0-4.1.088,10.77,10.77,0,0,1-1.967.228c-.181,0-.363-.012-.544-.029a4.9,4.9,0,0,1-4.222-5,8.331,8.331,0,0,1,7,.327,8.041,8.041,0,0,1,1.522,1.048,7.876,7.876,0,0,1,1.189,1.3A8.369,8.369,0,0,1,991.115,85.412Z" fill="#feccae"/>
      <path id="Path_14" data-name="Path 14" d="M991.466,86.635c-.035-.117-.064-.228-.1-.345-.082-.281-.164-.562-.24-.849a8.2,8.2,0,0,1,.252.82C991.413,86.384,991.443,86.507,991.466,86.635Z" fill="#feccae"/>
      <path id="Path_15" data-name="Path 15" d="M996.279,77.414a4.333,4.333,0,0,1-.316,1.013,5.7,5.7,0,0,1-.346.673,5.611,5.611,0,0,1-4.742,2.682,1.384,1.384,0,0,1-.158-.006,7.55,7.55,0,0,0,.685-1.932,7.457,7.457,0,0,0,.169-1.909c-.058-1.411-.439-3.056.551-4.069a2.407,2.407,0,0,1,3.29.14A3.793,3.793,0,0,1,996.279,77.414Z" fill="#feccae"/>
      <path id="Path_16" data-name="Path 16" d="M1008.012,122.093a4.239,4.239,0,0,1-2.242,2.951c-1.839.808-3.964-.252-5.492-1.563-.012-.012-.029-.024-.041-.036-.469-.4-.914-.831-1.376-1.235-.158-.14-.316-.275-.48-.4a11.452,11.452,0,0,0-6.487-2.47c-.147-.012-.288-.018-.434-.018-.129-.006-.257-.006-.386-.006.029-.024.058-.047.082-.07a14.163,14.163,0,0,0,1.686-1.663c1.206-1.388,2.26-2.939,3.548-4.269,1.856-1.92,4.614-3.424,7.149-2.581,2.933.977,4.087,4.484,4.491,7.546A10.47,10.47,0,0,1,1008.012,122.093Z" fill="#feccae"/>
      <path id="Path_17" data-name="Path 17" d="M989.663,127.31a4.215,4.215,0,0,0-2.1-2.061,8.661,8.661,0,0,0-2.846-.65c-.468-.041-.942-.065-1.411-.094-.052,0-.105-.006-.158-.006a8.83,8.83,0,0,1-4.327-1.065,4.7,4.7,0,0,1,.557-8.209,5.948,5.948,0,0,1,6.218,1.165,10.071,10.071,0,0,1,2.775,4.374c.158.457.3.925.416,1.393.023.094.046.194.07.287C989.236,124.043,989.423,125.682,989.663,127.31Z" fill="#feccae"/>
      <path id="Path_18" data-name="Path 18" d="M989.9,128.756c-.024-.129-.047-.258-.065-.386s-.046-.27-.07-.4c-.035-.216-.064-.439-.1-.655a2.3,2.3,0,0,1,.152.439,3.1,3.1,0,0,1,.088.463A2.355,2.355,0,0,1,989.9,128.756Z" fill="#feccae"/>
      <path id="Path_19" data-name="Path 19" d="M991.747,112.994a28.019,28.019,0,0,1-5.17-.983c-.275-.076-.556-.164-.831-.252-.07-.018-.141-.041-.211-.065-.984-.327-2.108-.889-2.231-1.926-.14-1.153,1.1-2.008,2.249-2.195a5.611,5.611,0,0,1,5.767,3.337,4.682,4.682,0,0,1,.181.475v0A4.629,4.629,0,0,1,991.747,112.994Z" fill="#feccae"/>
      <path id="Path_20" data-name="Path 20" d="M1000.207,134.312a8.578,8.578,0,0,1-2.739,4.7,9.79,9.79,0,0,1-1.535,1.165,9.436,9.436,0,0,1-.825.474,16.991,16.991,0,0,1-8.033,1.575h-.158c.293-.287.574-.579.837-.89a15.981,15.981,0,0,0,1.118-1.4,17.982,17.982,0,0,0,3.191-7.887c.006-.023.006-.047.012-.07.269-1.891.533-4.262,2.336-4.912a3.278,3.278,0,0,1,2.4.205A6.489,6.489,0,0,1,1000.207,134.312Z" fill="#feccae"/>
      <path id="Path_21" data-name="Path 21" d="M984.546,139.892a8.308,8.308,0,0,1-.246,1.733c-.27,1.048-.785,2.032-.949,3.1-.41,2.694,1.482,5.463.656,8.063a11.09,11.09,0,0,1-3.911-6.939,10.457,10.457,0,0,1,.064-3.624,5.651,5.651,0,0,0,.205-2.043c-.345-1.944-2.992-2.74-3.466-4.649a2.862,2.862,0,0,1,2.4-3.25,4.22,4.22,0,0,1,3.893,1.862,8.362,8.362,0,0,1,1.329,4.292A12.215,12.215,0,0,1,984.546,139.892Z" fill="#feccae"/>
      <path id="Path_22" data-name="Path 22" d="M1003.8,98.568a2.437,2.437,0,0,1-1.452,1.077c-.92.141-1.7-.679-2.155-1.487a5.07,5.07,0,0,0-1.663-2.2,2.011,2.011,0,0,0-.79-.24,2.858,2.858,0,0,0-.434,0c-1.581.141-3.284,1.675-4.976,1.464-.053-.006-.111-.011-.17-.023.094-.153.193-.305.293-.451.228-.346.462-.691.7-1.025a29.47,29.47,0,0,1,2.9-3.425,12.717,12.717,0,0,1,1.657-1.423,5.378,5.378,0,0,1,4.673-1.176,4.583,4.583,0,0,1,3,3.981A7.3,7.3,0,0,1,1003.8,98.568Z" fill="#feccae"/>
      <path id="Path_23" data-name="Path 23" d="M992.549,101.5a11.632,11.632,0,0,0-5.556-1.61,10.792,10.792,0,0,0-1.628.07c-.275.03-.55.07-.825.118h-.006a6.433,6.433,0,0,1-3.214-.041,3.754,3.754,0,0,1-1.693-5.165,5.11,5.11,0,0,1,5.3-2.295,7.111,7.111,0,0,1,3.214,1.522h.006a9.768,9.768,0,0,1,1.757,1.856,3.493,3.493,0,0,1,.24.358A22,22,0,0,1,992.549,101.5Z" fill="#feccae"/>
      <path id="Path_24" data-name="Path 24" d="M980.722,40.774a31.322,31.322,0,0,1-1.054,3.314,18.131,18.131,0,0,1-2.652-1.657,7.665,7.665,0,0,1-1.534-1.54c-.006-.8-.14-1.757-.1-2.167a2.376,2.376,0,0,1,.538-1.352,2.583,2.583,0,0,1,2.694-.691,5.228,5.228,0,0,1,2.318,1.78A7.482,7.482,0,0,1,980.722,40.774Z" fill="#feccae"/>
      <path id="Path_25" data-name="Path 25" d="M986.888,49.076c-.036.035-.077.07-.118.1-.058,0-.117-.005-.169-.005-.375-.006-.744-.018-1.113-.024-.4-.012-.8-.017-1.194-.029-.791-.018-2.295-.106-2.723-.767-.228-.357.328-.814.393-1.236a.546.546,0,0,1,.029-.14,3.243,3.243,0,0,1,1-1.78,3.806,3.806,0,0,1,1.874.176C986.021,45.744,988.216,47.806,986.888,49.076Z" fill="#feccae"/>
      <path id="Path_26" data-name="Path 26" d="M983.462,52.665a7.342,7.342,0,0,1-2.628,3.4,7.876,7.876,0,0,1-1.868,1,1.516,1.516,0,0,1-.527-.591,2.547,2.547,0,0,1,.07-2.5,6.994,6.994,0,0,1,2.565-1.218A6.051,6.051,0,0,1,983.462,52.665Z" fill="#feccae"/>
      <path id="Path_27" data-name="Path 27" d="M988.41,58.983c-.029.287-.059.573-.07.837-.018.538-.036,1.083-.059,1.622-.012.386-.023.773-.041,1.159q-.316,1.465-.62,2.933a7.733,7.733,0,0,1-2.454-2.494,8.145,8.145,0,0,1-.6-1.142,10.624,10.624,0,0,1,1.715-5.363c.551-.708,2.372-1.744,2.794-.2A3.33,3.33,0,0,1,988.41,58.983Z" fill="#feccae"/>
      <path id="Path_28" data-name="Path 28" d="M996.244,69.428a3.365,3.365,0,0,1-.586.111c-.293.024-.591.024-.884.035a11.715,11.715,0,0,0-5.5,1.634c.059-.334.124-.668.2-1,.036-.181.077-.363.123-.544a5.392,5.392,0,0,1,3.308-3.092,2.461,2.461,0,0,1,2.717.387A3.764,3.764,0,0,1,996.244,69.428Z" fill="#feccae"/>
      <path id="Path_29" data-name="Path 29" d="M990.26,76.12a7.8,7.8,0,0,1-2.863-.884,7.631,7.631,0,0,1-1.031-.656,15.943,15.943,0,0,1-.708-1.628.518.518,0,0,1-.035-.222,3.262,3.262,0,0,1-.4-.884.59.59,0,0,1,.562-.744,1.765,1.765,0,0,1,1.4.8.784.784,0,0,1,.235.228,2.2,2.2,0,0,1,.268.1c.264.4.534.8.8,1.207Q989.374,74.776,990.26,76.12Z" fill="#feccae"/>
      <path id="Path_30" data-name="Path 30" d="M995.963,78.427a5.7,5.7,0,0,1-.346.673,5.611,5.611,0,0,1-4.742,2.682,1.384,1.384,0,0,1-.158-.006,7.55,7.55,0,0,0,.685-1.932,1.071,1.071,0,0,0,.245-.451c.118-.427.206-.849.287-1.277.188-.995.287-3.056,1.851-2.775A2.755,2.755,0,0,1,995.963,78.427Z" fill="#feccae"/>
      <path id="Path_31" data-name="Path 31" d="M991.115,85.412a7.573,7.573,0,0,0-4.1.088,10.77,10.77,0,0,1-1.967.228,2.718,2.718,0,0,1-.738-.884c-.392-.732-.462-1.441-1.1-2.032a1,1,0,0,1-.276-.819,1.018,1.018,0,0,1,1.657-.621c1.265.837,2.858.164,4.21.7a7.876,7.876,0,0,1,1.189,1.3A8.369,8.369,0,0,1,991.115,85.412Z" fill="#feccae"/>
      <path id="Path_32" data-name="Path 32" d="M991.379,86.261c0,.012,0,.023-.012.029-.082-.281-.164-.562-.24-.849A8.2,8.2,0,0,1,991.379,86.261Z" fill="#feccae"/>
      <path id="Path_33" data-name="Path 33" d="M992.549,101.5a11.632,11.632,0,0,0-5.556-1.61,10.792,10.792,0,0,0-1.628.07c-.275.03-.55.07-.825.118h-.006c-1.844-.967-3.689-2.191-2.67-4.561a2.452,2.452,0,0,1,2.635-1.037c1.387.363,2.312-.626,3.647-.381h.006a9.768,9.768,0,0,1,1.757,1.856,3.493,3.493,0,0,1,.24.358A22,22,0,0,1,992.549,101.5Z" fill="#feccae"/>
      <path id="Path_34" data-name="Path 34" d="M1003.053,96.343c-.837.837-1.95-.211-2.781-.433a5.837,5.837,0,0,0-2.535-.188,2.858,2.858,0,0,0-.434,0c-1.581.141-3.284,1.675-4.976,1.464a1.009,1.009,0,0,1,.111-.416c.006-.017.006-.041.012-.058.228-.346.462-.691.7-1.025a29.47,29.47,0,0,1,2.9-3.425,12.717,12.717,0,0,1,1.657-1.423,1.053,1.053,0,0,1,.206.164c.421.48.784.211,1.217.082a2.978,2.978,0,0,1,.679-.322,2.461,2.461,0,0,1,2.395.4C1003.393,92,1004.177,95.219,1003.053,96.343Z" fill="#feccae"/>
      <path id="Path_35" data-name="Path 35" d="M991.747,112.994a28.019,28.019,0,0,1-5.17-.983c-.275-.076-.556-.164-.831-.252a2.588,2.588,0,0,1-.7-.884c-.351-.732-.4-2.038.762-2.026a9.849,9.849,0,0,1,5.515,2.061,4.682,4.682,0,0,1,.181.475v0A4.629,4.629,0,0,1,991.747,112.994Z" fill="#feccae"/>
      <path id="Path_36" data-name="Path 36" d="M989.663,127.31a4.215,4.215,0,0,0-2.1-2.061,8.661,8.661,0,0,0-2.846-.65c-.468-.041-.942-.065-1.411-.094-2.406-1.44-5.234-3.888-3.273-6.452a1.648,1.648,0,0,1,.346-.322c.866-1.405,2.283-.621,3.378.023a20.258,20.258,0,0,1,4.614,3.01c.158.457.3.925.416,1.393.023.094.046.194.07.287C989.236,124.043,989.423,125.682,989.663,127.31Z" fill="#feccae"/>
      <path id="Path_37" data-name="Path 37" d="M989.815,127.749a1.618,1.618,0,0,1-.053.216c-.035-.216-.064-.439-.1-.655A2.3,2.3,0,0,1,989.815,127.749Z" fill="#feccae"/>
      <path id="Path_38" data-name="Path 38" d="M1004.786,119.874a3.822,3.822,0,0,1-1.991,2.635c-.855.333-1.692.609-2.517.972-.012-.012-.029-.024-.041-.036-.469-.4-.914-.831-1.376-1.235-.158-.14-.316-.275-.48-.4a11.452,11.452,0,0,0-6.487-2.47,1.206,1.206,0,0,1-.077-.147c-.105.011-.211.029-.316.035a3.236,3.236,0,0,1-.345.018,14.163,14.163,0,0,0,1.686-1.663c.187-.094.375-.193.562-.3a1.577,1.577,0,0,1,.8-.522c1.218-.86,2.4-1.926,3.5-2.541,1.077-.6,3.091-2.02,4.438-1.727C1004.979,113.094,1005.588,117.468,1004.786,119.874Z" fill="#feccae"/>
      <path id="Path_39" data-name="Path 39" d="M997.468,139.014a10.546,10.546,0,0,1-2.36,1.639,17.19,17.19,0,0,1-8.191,1.575,17.983,17.983,0,0,0,5.146-10.176,4.312,4.312,0,0,1,1.751-1.505c1.967-.977,2.875.205,3.853,2.091C998.966,135.15,998.457,136.754,997.468,139.014Z" fill="#feccae"/>
      <path id="Path_40" data-name="Path 40" d="M983.345,144.793a3.893,3.893,0,0,0-.046.526c-.094,2.507,1.475,5.059.708,7.466a10.607,10.607,0,0,1-2.7-3.3,11.291,11.291,0,0,1-1.212-3.637,14.484,14.484,0,0,1,.825-3.442.579.579,0,0,1,.346-.363c.123-1.458.146-2.846-.34-3.5-.778-1.059-1.516-1.54-1.475-2.845.07-2.073,2.769-.509,3.314.182a7.508,7.508,0,0,1,1.083,1.961c.006.012.017.017.023.029a3.969,3.969,0,0,1,.4,1.089c.106.311.2.627.276.937a8.308,8.308,0,0,1-.246,1.733c-.194.749-.516,1.47-.738,2.213a6.494,6.494,0,0,0-.211.884A.282.282,0,0,0,983.345,144.793Z" fill="#feccae"/>
      <path id="Path_41" data-name="Path 41" d="M980.722,40.774a31.322,31.322,0,0,1-1.054,3.314,18.131,18.131,0,0,1-2.652-1.657c-.123-.557-.1-1.306-.158-1.652a5.881,5.881,0,0,1-.129-1.692,1.231,1.231,0,0,1,1.482-1.065c.919.252,1.545,1.47,2.078,2.172C980.43,40.382,980.576,40.575,980.722,40.774Z" fill="#feccae"/>
      <path id="Path_42" data-name="Path 42" d="M985.488,49.152c-.4-.012-.8-.017-1.194-.029-.791-.018-2.295-.106-2.723-.767-.228-.357.328-.814.393-1.236a.546.546,0,0,1,.029-.14,3.015,3.015,0,0,1,2.113-.521c.674.07.926.427,1.154,1.071A3.826,3.826,0,0,1,985.488,49.152Z" fill="#feccae"/>
      <path id="Path_43" data-name="Path 43" d="M983.462,52.665a7.342,7.342,0,0,1-2.628,3.4,1.215,1.215,0,0,1-.832-.4,1.057,1.057,0,0,1-.252-.826.534.534,0,0,1,0-.8c.428-.416.855-.878,1.324-1.288A6.051,6.051,0,0,1,983.462,52.665Z" fill="#feccae"/>
      <path id="Path_44" data-name="Path 44" d="M988.422,61.758c-.065.281-.123.562-.182.843q-.316,1.465-.62,2.933a7.733,7.733,0,0,1-2.454-2.494c.158-.7.4-1.364.562-2.049a15.3,15.3,0,0,1,.182-1.528.463.463,0,0,1,.246-.358.891.891,0,0,1,.451-.427c.661-.269,1.071.445,1.188.99a1.488,1.488,0,0,1,.012.45,1.877,1.877,0,0,1,.357.855,2.162,2.162,0,0,0,.117.469A1.911,1.911,0,0,0,988.422,61.758Z" fill="#feccae"/>
      <path id="Path_45" data-name="Path 45" d="M995.658,69.539c-.293.024-.591.024-.884.035a11.715,11.715,0,0,0-5.5,1.634c.059-.334.124-.668.2-1a4.509,4.509,0,0,1,.369-.474,10.366,10.366,0,0,1,1.125-1.019,2.685,2.685,0,0,1,1.674-.7A4.2,4.2,0,0,1,995.658,69.539Z" fill="#feccae"/>
      <path id="Path_46" data-name="Path 46" d="M990.26,76.12a7.8,7.8,0,0,1-2.863-.884,2.854,2.854,0,0,1-.82-1.575.573.573,0,0,1,.428-.568,1.882,1.882,0,0,1,1.481.34Q989.374,74.776,990.26,76.12Z" fill="#feccae"/>
      <path id="Path_47" data-name="Path 47" d="M995.617,79.1a5.611,5.611,0,0,1-4.742,2.682,10.454,10.454,0,0,1,.872-1.862c.363-.855,1.253-3.191,2.617-2.717.726.252.785.767,1.048,1.411C995.477,78.772,995.547,78.936,995.617,79.1Z" fill="#feccae"/>
      <path id="Path_48" data-name="Path 48" d="M989.991,83.374a8.369,8.369,0,0,1,1.124,2.038,7.573,7.573,0,0,0-4.1.088.516.516,0,0,1-.1-.094,3.619,3.619,0,0,1-.779-1.792.594.594,0,0,1,.562-.738,24.67,24.67,0,0,1,2.547.282A1.625,1.625,0,0,1,989.991,83.374Z" fill="#feccae"/>
      <path id="Path_49" data-name="Path 49" d="M991.466,86.635c-.035-.117-.064-.228-.1-.345-.082-.281-.164-.562-.24-.849a8.2,8.2,0,0,1,.252.82C991.413,86.384,991.443,86.507,991.466,86.635Z" fill="#feccae"/>
      <path id="Path_50" data-name="Path 50" d="M1000.2,94.973l-.065-.035c-.4.012-.849.017-1.305.041-.264.163-.533.31-.767.445a3.7,3.7,0,0,1-.762.3c-1.581.141-3.284,1.675-4.976,1.464-.053-.006-.111-.011-.17-.023.094-.153.193-.305.293-.451.228-.346.462-.691.7-1.025a11.148,11.148,0,0,1,3.091-2.886,5.319,5.319,0,0,1,4.163-.58C1002.146,92.777,1002.163,95.681,1000.2,94.973Z" fill="#feccae"/>
      <path id="Path_51" data-name="Path 51" d="M992.549,101.5a11.632,11.632,0,0,0-5.556-1.61c-.65-.357-1.358-.691-1.575-.855a3.846,3.846,0,0,1-1.212-1.223c-.3-.7-.427-1.517.351-1.974.6-.351,1.288.094,1.856.246a8.742,8.742,0,0,0,3.15.158,1.359,1.359,0,0,1,.586.071A22,22,0,0,1,992.549,101.5Z" fill="#feccae"/>
      <path id="Path_52" data-name="Path 52" d="M991.747,112.994a28.019,28.019,0,0,1-5.17-.983,1.118,1.118,0,0,1,.551-1.312,2.154,2.154,0,0,1,1.457.035c.861.182,1.722.346,2.576.55a2.392,2.392,0,0,1,.34.1v0A4.629,4.629,0,0,1,991.747,112.994Z" fill="#feccae"/>
      <path id="Path_53" data-name="Path 53" d="M1001.882,117.356a6.815,6.815,0,0,0-.1,2.694c.141,1.311-1.9,1.932-2.8,2.137-.041.011-.082.017-.117.023-.158-.14-.316-.275-.48-.4a11.452,11.452,0,0,0-6.487-2.47c-.147-.012-.288-.018-.434-.018a.336.336,0,0,1,.041-.094,1.653,1.653,0,0,1,.925-.75c2.166-.883,4.151-2.16,6.294-3.062,1.037-.433,2.407-.608,3.086.551A1.7,1.7,0,0,1,1001.882,117.356Z" fill="#feccae"/>
      <path id="Path_54" data-name="Path 54" d="M988.855,122.444c.381,1.6.568,3.238.808,4.866a4.215,4.215,0,0,0-2.1-2.061,8.661,8.661,0,0,0-2.846-.65,19.487,19.487,0,0,1-1.885-1.926c-.07-.106-.17-.27-.269-.457-.065-.059-.123-.117-.193-.176a2.171,2.171,0,0,1-1-1.8c-.052-2.008,2.553-.5,3.18-.152C985.986,120.869,987.438,121.625,988.855,122.444Z" fill="#feccae"/>
      <path id="Path_55" data-name="Path 55" d="M989.9,128.212a.949.949,0,0,1-.071.158c-.029-.135-.046-.27-.07-.4-.035-.216-.064-.439-.1-.655a2.3,2.3,0,0,1,.152.439A3.1,3.1,0,0,1,989.9,128.212Z" fill="#feccae"/>
      <path id="Path_56" data-name="Path 56" d="M996.519,137.515a5.611,5.611,0,0,1-.433,2.377c-.041.088-.094.187-.153.287a9.436,9.436,0,0,1-.825.474,16.991,16.991,0,0,1-8.033,1.575,2.391,2.391,0,0,1,.609-.744c.023-.046.046-.093.07-.146a5.776,5.776,0,0,1,1.118-1.4c.328-.328.662-.615.949-.867a14.432,14.432,0,0,0,2.377-3.179,5,5,0,0,1,.955-2.242c.884-.873,2.335-1.359,2.763.2.222.814-.105,1.4.234,2.272A3.866,3.866,0,0,1,996.519,137.515Z" fill="#feccae"/>
      <path id="Path_57" data-name="Path 57" d="M984.007,152.785a10.607,10.607,0,0,1-2.7-3.3c.082-.416.17-.814.24-1.177a7.794,7.794,0,0,1-.187-3.613c.257-1.077.966-2,.772-3.191a3.679,3.679,0,0,1-.093-1.294.58.58,0,0,1,.41-.41c1.9-.357,1.557,2.038,1.112,4.04-.07.334-.146.656-.217.955-.023.093-.046.187-.064.275.006.082.012.17.018.251C983.205,147.826,984.774,150.378,984.007,152.785Z" fill="#feccae"/>
    </g>
    <g id="Group_7" data-name="Group 7" transform="translate(960.203 502.452) rotate(-90)">
      <g id="Group_5-2" data-name="Group 5" transform="translate(3.601 0)">
        <path id="Path_6-2" data-name="Path 6" d="M.4,0,0,.172A174.982,174.982,0,0,1,12.649,47.254C16.149,75.61,12.19,102.2,1.2,124.16l.393.2c11.029-22.034,15-48.715,11.492-77.157A175.459,175.459,0,0,0,.4,0Z" fill="#feccae"/>
      </g>
      <path id="Path_7-2" data-name="Path 7" d="M6.179,3.314A31.322,31.322,0,0,0,5.125,0,18.131,18.131,0,0,0,2.473,1.657,7.665,7.665,0,0,0,.939,3.2,5.35,5.35,0,0,0,.33,4.245c-.878,1.991.047,4.872,2.2,5.2,1.961.293,3.642-1.7,3.847-3.676a1.337,1.337,0,0,0,.011-.141A7.482,7.482,0,0,0,6.179,3.314Z" transform="translate(0 123.776)" fill="#feccae"/>
      <path id="Path_8-2" data-name="Path 8" d="M7.157,1.826A1.735,1.735,0,0,0,6.683.363,2.137,2.137,0,0,0,5.254,0C5.2,0,5.137,0,5.085,0,4.71.011,4.341.023,3.972.029c-.4.012-.8.017-1.194.029C1.987.076.483.164.055.825c-.228.357.328.814.393,1.236a.546.546,0,0,0,.029.14,3.243,3.243,0,0,0,1,1.78,3.406,3.406,0,0,0,2.43.972A3.5,3.5,0,0,0,7.157,1.826Z" transform="translate(6.973 118.683)" fill="#feccae"/>
      <path id="Path_9-2" data-name="Path 9" d="M7.336,4.856a7.342,7.342,0,0,0-2.628-3.4,7.876,7.876,0,0,0-1.868-1A7.117,7.117,0,0,0,0,.008,6.38,6.38,0,0,0,2.383,3.55,6.994,6.994,0,0,0,4.948,4.768,6.051,6.051,0,0,0,7.336,4.856Z" transform="translate(1.583 110.343)" fill="#feccae"/>
      <path id="Path_10-2" data-name="Path 10" d="M7.614,7.834A2.245,2.245,0,0,1,5.435,6.768a6.621,6.621,0,0,1-.843-2.406c-.041-.194-.081-.392-.122-.586-.065-.281-.123-.562-.182-.843Q3.971,1.467,3.668,0A7.733,7.733,0,0,0,1.214,2.494a8.145,8.145,0,0,0-.6,1.142A7.745,7.745,0,0,0,0,6.469,6.03,6.03,0,0,0,1.595,10.86a4.091,4.091,0,0,0,4.414.967A3.117,3.117,0,0,0,7.614,7.834Z" transform="translate(9.409 102.33)" fill="#feccae"/>
      <path id="Path_11-2" data-name="Path 11" d="M7.1,1.821a.929.929,0,0,0-.129-.041,3.365,3.365,0,0,0-.586-.111c-.293-.024-.591-.024-.884-.035A11.715,11.715,0,0,1,0,0C.059.334.124.668.2,1c.036.181.077.363.123.544a10.151,10.151,0,0,0,.943,2.518A5.36,5.36,0,0,0,4.444,6.739,3.425,3.425,0,0,0,8.2,5.4,2.535,2.535,0,0,0,7.1,1.821Z" transform="translate(14.727 96.656)" fill="#feccae"/>
      <path id="Path_12-2" data-name="Path 12" d="M6.307,0A7.8,7.8,0,0,0,3.444.884a7.631,7.631,0,0,0-1.031.656c-.1.07-.193.146-.286.222A5.156,5.156,0,0,0,.112,6.745c1.165.416,2.237-.761,2.922-1.792.234-.351.468-.708.7-1.059.264-.4.534-.8.8-1.207Q5.421,1.345,6.307,0Z" transform="translate(9.409 91.744)" fill="#feccae"/>
      <path id="Path_13-2" data-name="Path 13" d="M10.84.316a7.573,7.573,0,0,1-4.1-.088A10.77,10.77,0,0,0,4.774,0c-.181,0-.363.012-.544.029a4.9,4.9,0,0,0-4.222,5,8.331,8.331,0,0,0,7-.327A8.041,8.041,0,0,0,8.527,3.654a7.876,7.876,0,0,0,1.189-1.3A8.369,8.369,0,0,0,10.84.316Z" transform="translate(5.731 82.136)" fill="#feccae"/>
      <path id="Path_14-2" data-name="Path 14" d="M.339,0C.3.117.275.228.24.345.158.626.076.907,0,1.194A8.2,8.2,0,0,0,.252.374C.286.251.316.128.339,0Z" transform="translate(16.584 81.229)" fill="#feccae"/>
      <path id="Path_15-2" data-name="Path 15" d="M5.562,4.369a4.333,4.333,0,0,0-.316-1.013A5.7,5.7,0,0,0,4.9,2.683,5.611,5.611,0,0,0,.158,0,1.384,1.384,0,0,0,0,.007,7.55,7.55,0,0,1,.685,1.939,7.457,7.457,0,0,1,.854,3.848C.8,5.259.415,6.9,1.405,7.917a2.407,2.407,0,0,0,3.29-.14A3.793,3.793,0,0,0,5.562,4.369Z" transform="translate(16.174 86.081)" fill="#feccae"/>
      <path id="Path_16-2" data-name="Path 16" d="M16.938,3.232A4.239,4.239,0,0,0,14.7.281C12.857-.527,10.732.533,9.2,1.844c-.012.012-.029.024-.041.036-.469.4-.914.831-1.376,1.235-.158.14-.316.275-.48.4A11.452,11.452,0,0,1,.82,5.989C.673,6,.532,6.007.386,6.007c-.129.006-.257.006-.386.006.029.024.058.047.082.07A14.163,14.163,0,0,1,1.768,7.746c1.206,1.388,2.26,2.939,3.548,4.269,1.856,1.92,4.614,3.424,7.149,2.581,2.933-.977,4.087-4.484,4.491-7.546A10.47,10.47,0,0,0,16.938,3.232Z" transform="translate(16.531 42.539)" fill="#feccae"/>
      <path id="Path_17-2" data-name="Path 17" d="M13,0a4.215,4.215,0,0,1-2.1,2.061,8.661,8.661,0,0,1-2.846.65c-.468.041-.942.065-1.411.094-.052,0-.105.006-.158.006A8.83,8.83,0,0,0,2.152,3.876,4.8,4.8,0,0,0,.01,8.144a4.806,4.806,0,0,0,2.7,3.941A5.948,5.948,0,0,0,8.927,10.92,10.071,10.071,0,0,0,11.7,6.546c.158-.457.3-.925.416-1.393.023-.094.046-.194.07-.287C12.569,3.267,12.756,1.628,13,0Z" transform="translate(2.124 40.554)" fill="#feccae"/>
      <path id="Path_18-2" data-name="Path 18" d="M.234,0C.21.129.187.258.169.386S.123.656.1.791c-.035.216-.064.439-.1.655a2.3,2.3,0,0,0,.152-.439A3.1,3.1,0,0,0,.24.544,2.355,2.355,0,0,0,.234,0Z" transform="translate(15.12 39.108)" fill="#feccae"/>
      <path id="Path_19-2" data-name="Path 19" d="M8.454,0a28.019,28.019,0,0,0-5.17.983c-.275.076-.556.164-.831.252-.07.018-.141.041-.211.065C1.258,1.627.134,2.189.011,3.226c-.14,1.153,1.1,2.008,2.249,2.195A5.611,5.611,0,0,0,8.027,2.084a4.682,4.682,0,0,0,.181-.475v0A4.629,4.629,0,0,0,8.454,0Z" transform="translate(8.75 54.87)" fill="#feccae"/>
      <path id="Path_20-2" data-name="Path 20" d="M13.29,7.92a8.578,8.578,0,0,0-2.739-4.7A9.79,9.79,0,0,0,9.016,2.053a9.436,9.436,0,0,0-.825-.474A16.991,16.991,0,0,0,.158,0H0c.293.287.574.579.837.89a15.981,15.981,0,0,1,1.118,1.4A17.982,17.982,0,0,1,5.146,10.18c.006.023.006.047.012.07.269,1.891.533,4.262,2.336,4.912a3.278,3.278,0,0,0,2.4-.205A6.489,6.489,0,0,0,13.29,7.92Z" transform="translate(12.374 25.632)" fill="#feccae"/>
      <path id="Path_21-2" data-name="Path 21" d="M7.71,12.893a8.308,8.308,0,0,0-.246-1.733c-.27-1.048-.785-2.032-.949-3.1C6.1,5.369,8,2.6,7.171,0A11.09,11.09,0,0,0,3.26,6.939a10.457,10.457,0,0,0,.064,3.624,5.651,5.651,0,0,1,.205,2.043C3.184,14.55.537,15.346.063,17.255a2.862,2.862,0,0,0,2.4,3.25,4.22,4.22,0,0,0,3.893-1.862,8.362,8.362,0,0,0,1.329-4.292A12.215,12.215,0,0,0,7.71,12.893Z" transform="translate(2.293 15.079)" fill="#feccae"/>
      <path id="Path_22-2" data-name="Path 22" d="M11.64,1.093A2.437,2.437,0,0,0,10.188.016C9.268-.125,8.49.695,8.033,1.5A5.07,5.07,0,0,1,6.37,3.7a2.011,2.011,0,0,1-.79.24,2.858,2.858,0,0,1-.434,0C3.565,3.8,1.862,2.264.17,2.475.117,2.481.059,2.486,0,2.5c.094.153.193.305.293.451.228.346.462.691.7,1.025A29.47,29.47,0,0,0,3.893,7.4,12.717,12.717,0,0,0,5.55,8.822,5.378,5.378,0,0,0,10.223,10a4.583,4.583,0,0,0,3-3.981A7.3,7.3,0,0,0,11.64,1.093Z" transform="translate(17.614 68.203)" fill="#feccae"/>
      <path id="Path_23-2" data-name="Path 23" d="M13.354,0A11.632,11.632,0,0,1,7.8,1.61,10.792,10.792,0,0,1,6.17,1.54c-.275-.03-.55-.07-.825-.118H5.339a6.433,6.433,0,0,0-3.214.041A3.754,3.754,0,0,0,.432,6.628a5.11,5.11,0,0,0,5.3,2.295A7.111,7.111,0,0,0,8.951,7.4h.006a9.768,9.768,0,0,0,1.757-1.856,3.494,3.494,0,0,0,.24-.358A22,22,0,0,0,13.354,0Z" transform="translate(4.651 66.363)" fill="#feccae"/>
      <path id="Path_24-2" data-name="Path 24" d="M5.351,3.314A31.322,31.322,0,0,0,4.3,0,18.131,18.131,0,0,0,1.645,1.657,7.665,7.665,0,0,0,.111,3.2c-.006.8-.14,1.757-.1,2.167A2.376,2.376,0,0,0,.544,6.716a2.583,2.583,0,0,0,2.694.691,5.228,5.228,0,0,0,2.318-1.78A7.482,7.482,0,0,0,5.351,3.314Z" transform="translate(0.828 123.776)" fill="#feccae"/>
      <path id="Path_25-2" data-name="Path 25" d="M5.372.1C5.336.07,5.295.035,5.254,0,5.2,0,5.137,0,5.085,0,4.71.011,4.341.023,3.972.029c-.4.012-.8.017-1.194.029C1.987.076.483.164.055.825c-.228.357.328.814.393,1.236a.546.546,0,0,0,.029.14,3.243,3.243,0,0,0,1,1.78,3.806,3.806,0,0,0,1.874-.176C4.5,3.437,6.7,1.375,5.372.1Z" transform="translate(6.973 118.683)" fill="#feccae"/>
      <path id="Path_26-2" data-name="Path 26" d="M5.318,4.4A7.342,7.342,0,0,0,2.69,1,7.876,7.876,0,0,0,.822,0,1.516,1.516,0,0,0,.3.591a2.547,2.547,0,0,0,.07,2.5A6.994,6.994,0,0,0,2.93,4.309,6.051,6.051,0,0,0,5.318,4.4Z" transform="translate(3.6 110.802)" fill="#feccae"/>
      <path id="Path_27-2" data-name="Path 27" d="M3.841,6.551c-.029-.287-.059-.573-.07-.837-.018-.538-.036-1.083-.059-1.622-.012-.386-.023-.773-.041-1.159Q3.355,1.467,3.051,0A7.733,7.733,0,0,0,.6,2.494,8.145,8.145,0,0,0,0,3.636,10.624,10.624,0,0,0,1.715,9c.551.708,2.372,1.744,2.794.2A3.33,3.33,0,0,0,3.841,6.551Z" transform="translate(10.026 102.33)" fill="#feccae"/>
      <path id="Path_28-2" data-name="Path 28" d="M6.974,1.78a3.365,3.365,0,0,0-.586-.111c-.293-.024-.591-.024-.884-.035A11.715,11.715,0,0,1,0,0C.059.334.124.668.2,1c.036.181.077.363.123.544A5.392,5.392,0,0,0,3.636,4.632a2.461,2.461,0,0,0,2.717-.387A3.764,3.764,0,0,0,6.974,1.78Z" transform="translate(14.727 96.656)" fill="#feccae"/>
      <path id="Path_29-2" data-name="Path 29" d="M5.063,0A7.8,7.8,0,0,0,2.2.884a7.631,7.631,0,0,0-1.031.656A15.943,15.943,0,0,0,.461,3.168a.518.518,0,0,0-.035.222,3.262,3.262,0,0,0-.4.884.59.59,0,0,0,.562.744,1.765,1.765,0,0,0,1.4-.8.784.784,0,0,0,.235-.228,2.2,2.2,0,0,0,.268-.1c.264-.4.534-.8.8-1.207Q4.177,1.345,5.063,0Z" transform="translate(10.654 91.744)" fill="#feccae"/>
      <path id="Path_30-2" data-name="Path 30" d="M5.246,3.356A5.7,5.7,0,0,0,4.9,2.683,5.611,5.611,0,0,0,.158,0,1.384,1.384,0,0,0,0,.007,7.55,7.55,0,0,1,.685,1.939,1.071,1.071,0,0,1,.93,2.39c.118.427.206.849.287,1.277.188.995.287,3.056,1.851,2.775A2.755,2.755,0,0,0,5.246,3.356Z" transform="translate(16.174 86.081)" fill="#feccae"/>
      <path id="Path_31-2" data-name="Path 31" d="M8.187.316a7.573,7.573,0,0,1-4.1-.088A10.77,10.77,0,0,0,2.121,0a2.718,2.718,0,0,0-.738.884C.991,1.616.921,2.325.283,2.916a1,1,0,0,0-.276.819,1.018,1.018,0,0,0,1.657.621c1.265-.837,2.858-.164,4.21-.7a7.876,7.876,0,0,0,1.189-1.3A8.369,8.369,0,0,0,8.187.316Z" transform="translate(8.384 82.136)" fill="#feccae"/>
      <path id="Path_32-2" data-name="Path 32" d="M.252.029C.252.017.252.006.24,0,.158.281.076.562,0,.849A8.2,8.2,0,0,0,.252.029Z" transform="translate(16.584 81.574)" fill="#feccae"/>
      <path id="Path_33-2" data-name="Path 33" d="M10.976,0A11.632,11.632,0,0,1,5.42,1.61a10.792,10.792,0,0,1-1.628-.07c-.275-.03-.55-.07-.825-.118H2.961C1.117,2.389-.728,3.613.291,5.983A2.452,2.452,0,0,0,2.926,7.02c1.387-.363,2.312.626,3.647.381h.006A9.768,9.768,0,0,0,8.336,5.545a3.494,3.494,0,0,0,.24-.358A22,22,0,0,0,10.976,0Z" transform="translate(7.03 66.363)" fill="#feccae"/>
      <path id="Path_34-2" data-name="Path 34" d="M10.726.863c-.837-.837-1.95.211-2.781.433a5.837,5.837,0,0,1-2.535.188,2.858,2.858,0,0,1-.434,0C3.395,1.343,1.692-.191,0,.02A1.009,1.009,0,0,0,.111.436C.117.453.117.477.123.494c.228.346.462.691.7,1.025a29.47,29.47,0,0,0,2.9,3.425A12.717,12.717,0,0,0,5.38,6.367,1.053,1.053,0,0,0,5.586,6.2c.421-.48.784-.211,1.217-.082a2.978,2.978,0,0,0,.679.322,2.461,2.461,0,0,0,2.395-.4C11.066,5.208,11.85,1.987,10.726.863Z" transform="translate(17.784 70.658)" fill="#feccae"/>
      <path id="Path_35-2" data-name="Path 35" d="M6.923,0a28.019,28.019,0,0,0-5.17.983c-.275.076-.556.164-.831.252a2.588,2.588,0,0,0-.7.884c-.351.732-.4,2.038.762,2.026A9.849,9.849,0,0,0,6.5,2.084a4.682,4.682,0,0,0,.181-.475v0A4.629,4.629,0,0,0,6.923,0Z" transform="translate(10.281 54.87)" fill="#feccae"/>
      <path id="Path_36-2" data-name="Path 36" d="M10.289,0a4.215,4.215,0,0,1-2.1,2.061,8.661,8.661,0,0,1-2.846.65c-.468.041-.942.065-1.411.094C1.524,4.245-1.3,6.693.657,9.257A1.648,1.648,0,0,0,1,9.579c.866,1.405,2.283.621,3.378-.023a20.258,20.258,0,0,0,4.614-3.01c.158-.457.3-.925.416-1.393.023-.094.046-.194.07-.287C9.862,3.267,10.049,1.628,10.289,0Z" transform="translate(4.831 40.554)" fill="#feccae"/>
      <path id="Path_37-2" data-name="Path 37" d="M.152.216A1.618,1.618,0,0,0,.1,0C.064.216.035.439,0,.655A2.3,2.3,0,0,0,.152.216Z" transform="translate(15.12 39.899)" fill="#feccae"/>
      <path id="Path_38-2" data-name="Path 38" d="M13.63,3.607A3.822,3.822,0,0,0,11.639.972C10.784.639,9.947.363,9.122,0c-.012.012-.029.024-.041.036-.469.4-.914.831-1.376,1.235-.158.14-.316.275-.48.4A11.452,11.452,0,0,1,.738,4.145a1.206,1.206,0,0,0-.077.147C.556,4.281.45,4.263.345,4.257A3.236,3.236,0,0,0,0,4.239,14.163,14.163,0,0,1,1.686,5.9c.187.094.375.193.562.3a1.577,1.577,0,0,0,.8.522c1.218.86,2.4,1.926,3.5,2.541,1.077.6,3.091,2.02,4.438,1.727C13.823,10.387,14.432,6.013,13.63,3.607Z" transform="translate(16.613 44.383)" fill="#feccae"/>
      <path id="Path_39-2" data-name="Path 39" d="M10.551,3.22a10.546,10.546,0,0,0-2.36-1.639A17.19,17.19,0,0,0,0,.006,17.983,17.983,0,0,1,5.146,10.182,4.312,4.312,0,0,0,6.9,11.687c1.967.977,2.875-.205,3.853-2.091C12.049,7.084,11.54,5.48,10.551,3.22Z" transform="translate(12.374 25.63)" fill="#feccae"/>
      <path id="Path_40-2" data-name="Path 40" d="M3.895,7.992a3.893,3.893,0,0,1-.046-.526C3.755,4.959,5.324,2.407,4.557,0a10.607,10.607,0,0,0-2.7,3.3A11.291,11.291,0,0,0,.646,6.939a14.484,14.484,0,0,0,.825,3.442.579.579,0,0,0,.346.363c.123,1.458.146,2.846-.34,3.5C.7,15.305-.039,15.786,0,17.091c.07,2.073,2.769.509,3.314-.182A7.508,7.508,0,0,0,4.4,14.948c.006-.012.017-.017.023-.029a3.969,3.969,0,0,0,.4-1.089c.106-.311.2-.627.276-.937A8.308,8.308,0,0,0,4.85,11.16c-.194-.749-.516-1.47-.738-2.213A6.494,6.494,0,0,1,3.9,8.063.282.282,0,0,1,3.895,7.992Z" transform="translate(4.907 15.079)" fill="#feccae"/>
      <path id="Path_41-2" data-name="Path 41" d="M4.016,3.314A31.322,31.322,0,0,0,2.962,0,18.131,18.131,0,0,0,.31,1.657c-.123.557-.1,1.306-.158,1.652A5.881,5.881,0,0,0,.023,5,1.231,1.231,0,0,0,1.5,6.066C2.424,5.814,3.05,4.6,3.583,3.894,3.724,3.706,3.87,3.513,4.016,3.314Z" transform="translate(2.163 123.776)" fill="#feccae"/>
      <path id="Path_42-2" data-name="Path 42" d="M3.972,0c-.4.012-.8.017-1.194.029C1.987.047.483.135.055.8c-.228.357.328.814.393,1.236a.546.546,0,0,0,.029.14,3.015,3.015,0,0,0,2.113.521c.674-.07.926-.427,1.154-1.071A3.826,3.826,0,0,0,3.972,0Z" transform="translate(6.973 118.712)" fill="#feccae"/>
      <path id="Path_43-2" data-name="Path 43" d="M3.891,3.4A7.342,7.342,0,0,0,1.263,0,1.215,1.215,0,0,0,.431.4a1.057,1.057,0,0,0-.252.826.534.534,0,0,0,0,.8c.428.416.855.878,1.324,1.288A6.051,6.051,0,0,0,3.891,3.4Z" transform="translate(5.028 111.803)" fill="#feccae"/>
      <path id="Path_44-2" data-name="Path 44" d="M3.256,3.776c-.065-.281-.123-.562-.182-.843Q2.757,1.467,2.454,0A7.733,7.733,0,0,0,0,2.494c.158.7.4,1.364.562,2.049A15.3,15.3,0,0,0,.744,6.071a.463.463,0,0,0,.246.358.891.891,0,0,0,.451.427c.661.269,1.071-.445,1.188-.99a1.488,1.488,0,0,0,.012-.45A1.877,1.877,0,0,0,3,4.561a2.162,2.162,0,0,1,.117-.469A1.911,1.911,0,0,1,3.256,3.776Z" transform="translate(10.623 102.33)" fill="#feccae"/>
      <path id="Path_45-2" data-name="Path 45" d="M6.388,1.669c-.293-.024-.591-.024-.884-.035A11.715,11.715,0,0,1,0,0C.059.334.124.668.2,1a4.509,4.509,0,0,0,.369.474A10.366,10.366,0,0,0,1.7,2.489a2.685,2.685,0,0,0,1.674.7A4.2,4.2,0,0,0,6.388,1.669Z" transform="translate(14.727 96.656)" fill="#feccae"/>
      <path id="Path_46-2" data-name="Path 46" d="M3.685,0A7.8,7.8,0,0,0,.822.884,2.854,2.854,0,0,0,0,2.459a.573.573,0,0,0,.428.568,1.882,1.882,0,0,0,1.481-.34Q2.8,1.345,3.685,0Z" transform="translate(12.032 91.744)" fill="#feccae"/>
      <path id="Path_47-2" data-name="Path 47" d="M4.742,2.683A5.611,5.611,0,0,0,0,0,10.454,10.454,0,0,0,.872,1.863c.363.855,1.253,3.191,2.617,2.717.726-.252.785-.767,1.048-1.411C4.6,3.011,4.672,2.847,4.742,2.683Z" transform="translate(16.332 86.081)" fill="#feccae"/>
      <path id="Path_48-2" data-name="Path 48" d="M3.865,2.126A8.369,8.369,0,0,0,4.989.088,7.573,7.573,0,0,1,.89,0a.516.516,0,0,0-.1.094A3.619,3.619,0,0,0,.012,1.886a.594.594,0,0,0,.562.738,24.67,24.67,0,0,0,2.547-.282A1.625,1.625,0,0,0,3.865,2.126Z" transform="translate(11.582 82.364)" fill="#feccae"/>
      <path id="Path_49-2" data-name="Path 49" d="M.339,0C.3.117.275.228.24.345.158.626.076.907,0,1.194A8.2,8.2,0,0,0,.252.374C.286.251.316.128.339,0Z" transform="translate(16.584 81.229)" fill="#feccae"/>
      <path id="Path_50-2" data-name="Path 50" d="M8.045,2.233l-.065.035c-.4-.012-.849-.017-1.305-.041-.264-.163-.533-.31-.767-.445a3.7,3.7,0,0,0-.762-.3C3.565,1.343,1.862-.191.17.02.117.026.059.031,0,.043.094.2.193.348.293.494c.228.346.462.691.7,1.025A11.148,11.148,0,0,0,4.087,4.4a5.319,5.319,0,0,0,4.163.58C9.989,4.429,10.006,1.525,8.045,2.233Z" transform="translate(17.614 70.658)" fill="#feccae"/>
      <path id="Path_51-2" data-name="Path 51" d="M8.578,0A11.632,11.632,0,0,1,3.022,1.61c-.65.357-1.358.691-1.575.855A3.846,3.846,0,0,0,.235,3.688c-.3.7-.427,1.517.351,1.974.6.351,1.288-.094,1.856-.246a8.742,8.742,0,0,1,3.15-.158,1.359,1.359,0,0,0,.586-.071A22,22,0,0,0,8.578,0Z" transform="translate(9.428 66.363)" fill="#feccae"/>
      <path id="Path_52-2" data-name="Path 52" d="M5.212,0A28.019,28.019,0,0,0,.042.983,1.118,1.118,0,0,0,.593,2.3,2.154,2.154,0,0,0,2.05,2.26c.861-.182,1.722-.346,2.576-.55a2.392,2.392,0,0,0,.34-.1v0A4.629,4.629,0,0,0,5.212,0Z" transform="translate(11.991 54.87)" fill="#feccae"/>
      <path id="Path_53-2" data-name="Path 53" d="M10.422,4.854a6.815,6.815,0,0,1-.1-2.694C10.463.849,8.42.228,7.518.023,7.477.012,7.436.006,7.4,0c-.158.14-.316.275-.48.4A11.452,11.452,0,0,1,.434,2.874c-.147.012-.288.018-.434.018a.336.336,0,0,0,.041.094,1.653,1.653,0,0,0,.925.75C3.132,4.619,5.117,5.9,7.26,6.8c1.037.433,2.407.608,3.086-.551A1.7,1.7,0,0,0,10.422,4.854Z" transform="translate(16.917 45.654)" fill="#feccae"/>
      <path id="Path_54-2" data-name="Path 54" d="M7.49,4.866c.381-1.6.568-3.238.808-4.866A4.215,4.215,0,0,1,6.2,2.061a8.661,8.661,0,0,1-2.846.65A19.487,19.487,0,0,0,1.465,4.637c-.07.106-.17.27-.269.457-.065.059-.123.117-.193.176a2.171,2.171,0,0,0-1,1.8c-.052,2.008,2.553.5,3.18.152C4.621,6.441,6.073,5.685,7.49,4.866Z" transform="translate(6.822 40.554)" fill="#feccae"/>
      <path id="Path_55-2" data-name="Path 55" d="M.24.158A.949.949,0,0,0,.169,0C.14.135.123.27.1.405.064.621.035.844,0,1.06A2.3,2.3,0,0,0,.152.621,3.1,3.1,0,0,0,.24.158Z" transform="translate(15.12 39.494)" fill="#feccae"/>
      <path id="Path_56-2" data-name="Path 56" d="M9.444,4.717A5.611,5.611,0,0,0,9.011,2.34c-.041-.088-.094-.187-.153-.287a9.436,9.436,0,0,0-.825-.474A16.991,16.991,0,0,0,0,0,2.391,2.391,0,0,0,.609.748c.023.046.046.093.07.146A5.776,5.776,0,0,0,1.8,2.293c.328.328.662.615.949.867A14.432,14.432,0,0,1,5.123,6.339a5,5,0,0,0,.955,2.242c.884.873,2.335,1.359,2.763-.2.222-.814-.105-1.4.234-2.272A3.866,3.866,0,0,0,9.444,4.717Z" transform="translate(12.532 25.632)" fill="#feccae"/>
      <path id="Path_57-2" data-name="Path 57" d="M2.789,0A10.607,10.607,0,0,0,.09,3.3c.082.416.17.814.24,1.177A7.794,7.794,0,0,0,.143,8.092c.257,1.077.966,2,.772,3.191a3.679,3.679,0,0,0-.093,1.294.58.58,0,0,0,.41.41c1.9.357,1.557-2.038,1.112-4.04-.07-.334-.146-.656-.217-.955-.023-.093-.046-.187-.064-.275.006-.082.012-.17.018-.251C1.987,4.959,3.556,2.407,2.789,0Z" transform="translate(6.675 15.079)" fill="#feccae"/>
    </g>
  </g>
</svg>
