<svg xmlns="http://www.w3.org/2000/svg" width="180.185" height="77.517" viewBox="0 0 180.185 77.517">
  <g id="logo" transform="translate(-375.02 -29)">
    <g id="Group_3" data-name="Group 3" transform="translate(375.02 29)">
      <path id="Path_1" data-name="Path 1" d="M253.406,300.235a19.281,19.281,0,0,0-7.984,4.336,19.259,19.259,0,0,1,3.881-17.217c6.673-7.74,12.831-6.164,14.7-5.421-.636.271-1.272.549-1.9.844a32.778,32.778,0,0,0-5.69,3.316,25.675,25.675,0,0,0-4.742,4.539,28.992,28.992,0,0,0-1.9,2.671c-.578.93-1.095,1.887-1.577,2.863.522-.955,1.077-1.892,1.688-2.791a28.76,28.76,0,0,1,1.989-2.573,25.229,25.229,0,0,1,4.846-4.277,32.121,32.121,0,0,1,5.7-3.023c.752-.316,1.515-.61,2.283-.9C267.08,290.8,259.955,298.257,253.406,300.235Z" transform="translate(-234.069 -281.279)" fill="#fa983a"/>
      <path id="Path_2" data-name="Path 2" d="M278.472,315.233a11.96,11.96,0,0,0-2.532,5.032,11.938,11.938,0,0,1-4.115-10.139c.658-6.3,4.352-7.674,5.568-7.962-.229.364-.453.729-.668,1.1a20.3,20.3,0,0,0-1.723,3.7,15.93,15.93,0,0,0-.808,3.988,18.073,18.073,0,0,0-.02,2.031c.034.676.111,1.348.21,2.015-.072-.671-.12-1.344-.128-2.015a17.963,17.963,0,0,1,.1-2.015,15.667,15.667,0,0,1,.954-3.892,19.933,19.933,0,0,1,1.835-3.557c.271-.428.555-.846.844-1.265C282.1,305.594,281.106,311.909,278.472,315.233Z" transform="translate(-271.776 -285.014)" fill="#fa983a"/>
      <g id="Group_2" data-name="Group 2" transform="translate(3.445 5.683)">
        <g id="Group_1" data-name="Group 1" transform="translate(0)">
          <path id="Path_3" data-name="Path 3" d="M231.078,319.229c11.769-7.662,15.472-17.021,13.911-29.965,0,0,3.421,8.022,3.816,10.842.364,2.6.726,3.4.265,5.033a2.121,2.121,0,0,0,.335-.077,1.535,1.535,0,0,0,.657-.443,2.03,2.03,0,0,0,.4-.752,2.151,2.151,0,0,1-.32.822,1.724,1.724,0,0,1-.657.573,2.2,2.2,0,0,1-.4.15,2.275,2.275,0,0,0,.429.053,1.726,1.726,0,0,0,.864-.218,2.272,2.272,0,0,0,.705-.643,2.4,2.4,0,0,1-.65.748,1.938,1.938,0,0,1-.912.356,2.578,2.578,0,0,1-.6-.015c-.478,1.933,2.631,4.635,4.061,6.531,1.461,1.938,4.682,3.9,3.6,5.775s-3.481,2.273-3.908,2.86-.082,1.568.375,2.255a2.143,2.143,0,0,1,.317,2.357,1.987,1.987,0,0,1-1.3.9c-.67.026-2.17.233-2.847.185.636.1,2.114.328,2.764.373.384.248,1.206.8.945,1.746-.322,1.167-1.117,1.771-1.318,2.344s1.078,2.618.891,4.568a4.629,4.629,0,0,1-4.876,4.025c-1.96-.155-3.505-.436-5.062-.648a41.668,41.668,0,0,1-8-2.177,14.985,14.985,0,0,1-3.774-2.093,5.787,5.787,0,0,1-1.415-1.615,3.439,3.439,0,0,1-.428-2.093,3.5,3.5,0,0,0,.33,2.147,5.972,5.972,0,0,0,1.37,1.732,15.342,15.342,0,0,0,3.743,2.331,36.76,36.76,0,0,0,4.778,1.76c-3.178,1.119-5.022,6.738-1.892,14.13C223.8,344.3,219.138,327,231.078,319.229Z" transform="translate(-212.193 -288.407)" fill="#fa983a"/>
          <path id="Path_4" data-name="Path 4" d="M271.294,288.218s2.521,16.608-9.6,25.393-21.007,18.052-18.247,35.261c0,0-9.724-19.134,2.521-34.057S263.97,303.743,271.294,288.218Z" transform="translate(-239.782 -288.218)" fill="#fa983a"/>
        </g>
        <path id="Path_5" data-name="Path 5" d="M240.391,361.65c-8.362-10.117,2.761-27.85,2.761-27.85s-4.561,27.131,23.289,31.812C266.441,365.612,250.114,373.411,240.391,361.65Z" transform="translate(-232.659 -296.314)" fill="#fa983a"/>
      </g>
    </g>
    <path id="Path_224" data-name="Path 224" d="M2.578,26.835v-15.4a.436.436,0,0,1,.125-.31A.421.421,0,0,1,3.021,11H9.97a5.082,5.082,0,0,1,4.394,2.509,4.884,4.884,0,0,1,.681,2.521,4.51,4.51,0,0,1-.943,2.8,5.762,5.762,0,0,1-2.5,1.86l3.178,5.916a.452.452,0,0,1,.012.449.409.409,0,0,1-.4.222H11.3a.381.381,0,0,1-.374-.2L7.835,20.908h-1.6v5.927a.465.465,0,0,1-.443.443H3.021a.421.421,0,0,1-.318-.13.436.436,0,0,1-.125-.312Zm3.657-8.88h3.44a1.635,1.635,0,0,0,1.24-.562,1.853,1.853,0,0,0,.517-1.3,1.783,1.783,0,0,0-1.76-1.771H6.234Zm13.614-3.333a1.8,1.8,0,0,1-1.318.543,1.832,1.832,0,0,1-1.839-1.84,1.8,1.8,0,0,1,.543-1.318,1.763,1.763,0,0,1,1.3-.543,1.87,1.87,0,0,1,1.86,1.86,1.763,1.763,0,0,1-.546,1.3ZM16.84,26.835V18.421a.421.421,0,0,1,.13-.318.436.436,0,0,1,.31-.125h2.558a.436.436,0,0,1,.31.125.421.421,0,0,1,.13.318v8.415a.465.465,0,0,1-.443.443H17.278a.465.465,0,0,1-.443-.443Zm8.312-.511L21.664,18.58a.411.411,0,0,1,.4-.6h2.657a.408.408,0,0,1,.388.25L26.9,22.552h.046l1.839-4.326a.342.342,0,0,1,.147-.176.449.449,0,0,1,.249-.074h2.623a.432.432,0,0,1,.388.188.388.388,0,0,1,.012.415l-7.122,15.4a.422.422,0,0,1-.388.273h-2.61a.432.432,0,0,1-.388-.188.427.427,0,0,1-.012-.437Zm7.812-1.885A2.929,2.929,0,0,1,33.9,22.2a3.5,3.5,0,0,1,2.487-.869,4.594,4.594,0,0,1,.914.091,3.767,3.767,0,0,1,.664.181l.215.091a1.764,1.764,0,0,0-.239-1.056,1.273,1.273,0,0,0-1.022-.31,10.077,10.077,0,0,0-2.316.34q-.477.147-.557-.488l-.215-1.465a.5.5,0,0,1,.352-.625,9.672,9.672,0,0,1,1.249-.216,13.869,13.869,0,0,1,1.839-.136,4.093,4.093,0,0,1,3.032.93,4.249,4.249,0,0,1,.9,3.023v5.144a.465.465,0,0,1-.443.443H39.732a.445.445,0,0,1-.42-.31l-.318-.625a7.577,7.577,0,0,1-.653.533,3.587,3.587,0,0,1-.891.42,3.862,3.862,0,0,1-1.272.2,3.237,3.237,0,0,1-2.305-.853,2.9,2.9,0,0,1-.909-2.206ZM36,24.212a1,1,0,0,0,.29.721.946.946,0,0,0,.71.3,1.027,1.027,0,0,0,1.024-1.022,1.008,1.008,0,0,0-.318-.693.981.981,0,0,0-.7-.284.965.965,0,0,0-.71.29.939.939,0,0,0-.293.687ZM2.578,50.091v-15.4a.436.436,0,0,1,.125-.31.421.421,0,0,1,.318-.13H8.437a5.262,5.262,0,0,1,3.543,1.255,3.9,3.9,0,0,1,1.465,3.071,3.08,3.08,0,0,1-.261,1.24,3.823,3.823,0,0,1-.687,1.067,6.7,6.7,0,0,1-.863.8,6.224,6.224,0,0,1-.891.574,7.787,7.787,0,0,1,1.016.521,6.808,6.808,0,0,1,.988.75,3.378,3.378,0,0,1,1.107,2.521,4.073,4.073,0,0,1-.687,2.305,4.643,4.643,0,0,1-1.845,1.607,5.628,5.628,0,0,1-2.532.574H3.021a.421.421,0,0,1-.318-.13.436.436,0,0,1-.125-.317Zm3.634-9.232H8.017a1.564,1.564,0,0,0,1.153-.488,1.619,1.619,0,0,0,.483-1.181,1.5,1.5,0,0,0-.477-1.136A1.618,1.618,0,0,0,8.018,37.6H6.212Zm0,6.347H8.324A1.605,1.605,0,0,0,9.5,46.712a1.628,1.628,0,0,0,.494-1.2A1.447,1.447,0,0,0,9.4,44.362a2.015,2.015,0,0,0-1.3-.483H6.212Zm8.868-1.329a4.784,4.784,0,0,1,1.391-3.44A4.574,4.574,0,0,1,19.895,41a4.35,4.35,0,0,1,3.117,1.24,4.146,4.146,0,0,1,1.3,3.129,4.491,4.491,0,0,1-.046.636.373.373,0,0,1-.147.278.465.465,0,0,1-.3.108H18.248a1.879,1.879,0,0,0,.517,1.056,1.633,1.633,0,0,0,1.266.488,2.5,2.5,0,0,0,.869-.171,3.084,3.084,0,0,0,.767-.4.477.477,0,0,1,.31-.125.329.329,0,0,1,.267.125l1.158,1.4a.557.557,0,0,1,.119.329.509.509,0,0,1-.142.352,4.651,4.651,0,0,1-3.44,1.318,4.66,4.66,0,0,1-3.457-1.425,4.747,4.747,0,0,1-1.4-3.454Zm3.463-1.295H21.03a1.128,1.128,0,0,0-.4-.775,1.208,1.208,0,0,0-1.652-.005,1.271,1.271,0,0,0-.432.781Zm6.813,3.112a2.929,2.929,0,0,1,.93-2.243,3.5,3.5,0,0,1,2.487-.869,4.594,4.594,0,0,1,.914.091,3.767,3.767,0,0,1,.664.181l.215.091a1.764,1.764,0,0,0-.239-1.056,1.273,1.273,0,0,0-1.022-.31,10.077,10.077,0,0,0-2.316.34q-.477.147-.557-.488l-.215-1.465a.5.5,0,0,1,.352-.625,9.67,9.67,0,0,1,1.249-.215,13.869,13.869,0,0,1,1.839-.136,4.093,4.093,0,0,1,3.032.93,4.25,4.25,0,0,1,.9,3.023v5.144a.465.465,0,0,1-.443.443H32.124a.445.445,0,0,1-.42-.31l-.318-.625a7.577,7.577,0,0,1-.653.533,3.587,3.587,0,0,1-.891.42,3.862,3.862,0,0,1-1.272.2,3.237,3.237,0,0,1-2.305-.853,2.9,2.9,0,0,1-.908-2.206Zm3.032-.227a1,1,0,0,0,.29.721.946.946,0,0,0,.71.3,1.027,1.027,0,0,0,1.022-1.022,1.008,1.008,0,0,0-.318-.693.981.981,0,0,0-.7-.284.965.965,0,0,0-.71.29.939.939,0,0,0-.29.687Zm7.358-1.59v-4.2a.421.421,0,0,1,.13-.318.436.436,0,0,1,.31-.125h2.487a.436.436,0,0,1,.31.125.421.421,0,0,1,.13.318v4.3a2.015,2.015,0,0,0,.4,1.266,1.3,1.3,0,0,0,1.09.517,1.209,1.209,0,0,0,1.022-.5A1.86,1.86,0,0,0,42,46.116v-4.44q0-.443.488-.443h2.374a.436.436,0,0,1,.31.125.421.421,0,0,1,.13.318v8.415a.465.465,0,0,1-.443.443H43.775a.465.465,0,0,1-.443-.329l-.352-.853a8.643,8.643,0,0,1-1,.853,3.932,3.932,0,0,1-2.135.557,4.081,4.081,0,0,1-1.805-.388,3.411,3.411,0,0,1-1.289-1.062A4.957,4.957,0,0,1,36,47.76a6.693,6.693,0,0,1-.256-1.883ZM48.18,47.536v-3.35h-.6a.388.388,0,0,1-.3-.136.442.442,0,0,1-.125-.31V41.676a.431.431,0,0,1,.125-.318.4.4,0,0,1,.3-.127h.6V38.642a.405.405,0,0,1,.136-.3.433.433,0,0,1,.31-.13h2.487a.4.4,0,0,1,.3.13.422.422,0,0,1,.125.3v2.589H53.26a.427.427,0,0,1,.443.443v2.069a.436.436,0,0,1-.125.31.421.421,0,0,1-.318.13H51.53V47.09q0,.557.636.557a1.744,1.744,0,0,0,.31-.029q.159-.029.352-.078l.239-.057a.388.388,0,0,1,.511.3l.522,1.93a.473.473,0,0,1-.051.323.392.392,0,0,1-.256.21,9.853,9.853,0,0,1-2.816.511,2.6,2.6,0,0,1-2.067-.829,3.528,3.528,0,0,1-.73-2.389Zm10,2.044-3.488-7.744a.411.411,0,0,1,.4-.6h2.657a.408.408,0,0,1,.388.25l1.794,4.326h.046l1.839-4.326a.342.342,0,0,1,.147-.176.449.449,0,0,1,.251-.074h2.623a.432.432,0,0,1,.388.188.388.388,0,0,1,.012.415L58.1,57.233a.422.422,0,0,1-.388.273h-2.61a.432.432,0,0,1-.388-.188.427.427,0,0,1-.012-.437Zm13.944-3.236a4.852,4.852,0,0,1,.176-1.312,4.138,4.138,0,0,1,.46-1.085,6.688,6.688,0,0,1,.625-.846,4.632,4.632,0,0,1,.676-.647q.335-.256.62-.437a4.207,4.207,0,0,1,.454-.261l.181-.078v-.068l-.465-.488A6.659,6.659,0,0,1,73.7,39.537a3.865,3.865,0,0,1-.391-1.743,3.246,3.246,0,0,1,.3-1.34,4.149,4.149,0,0,1,.835-1.209,3.881,3.881,0,0,1,1.425-.886,5.481,5.481,0,0,1,1.953-.335,4.968,4.968,0,0,1,3.315,1.13,3.476,3.476,0,0,1,1.34,2.753,3.782,3.782,0,0,1-.261,1.385,4.083,4.083,0,0,1-.636,1.124,8.154,8.154,0,0,1-.75.8q-.374.347-.636.557t-.261.244l2.1,2.146a7.065,7.065,0,0,0,.76-1.794q.046-.171.085-.278a.988.988,0,0,1,.113-.215.465.465,0,0,1,.159-.155.484.484,0,0,1,.227-.046.936.936,0,0,1,.323.068l1.705.6a1.086,1.086,0,0,1,.2.1.72.72,0,0,1,.136.113.3.3,0,0,1,.068.147q.017.091.022.147a.537.537,0,0,1-.017.159q-.022.1-.029.142a.785.785,0,0,1-.046.142.8.8,0,0,0-.04.113,11.616,11.616,0,0,1-.613,1.431q-.364.715-.6,1.1l-.25.374,1.976,1.839a1.89,1.89,0,0,1,.261.284.388.388,0,0,1,.017.31,1.136,1.136,0,0,1-.323.477l-1.295,1.329a.674.674,0,0,1-1.045-.068l-1.522-1.51-.193.193a4.682,4.682,0,0,1-.584.432,6.288,6.288,0,0,1-1,.543,7.984,7.984,0,0,1-1.425.426,8.725,8.725,0,0,1-1.86.193,5.329,5.329,0,0,1-3.662-1.289,4.025,4.025,0,0,1-1.468-3.132Zm5.86-6.256q.057-.022.164-.078a3.82,3.82,0,0,0,.369-.244,3.188,3.188,0,0,0,.46-.4,2.17,2.17,0,0,0,.364-.55,1.6,1.6,0,0,0,.164-.7,1.355,1.355,0,0,0-.494-1.05,1.791,1.791,0,0,0-1.232-.437,1.443,1.443,0,0,0-1,.335,1.05,1.05,0,0,0-.374.812,1.953,1.953,0,0,0,.012.215.83.83,0,0,0,.057.215l.078.193a.971.971,0,0,0,.108.2q.078.119.119.181a1.891,1.891,0,0,0,.155.193q.113.13.164.181t.193.21q.142.159.188.215Zm-2.532,5.791a1.819,1.819,0,0,0,.63,1.408,2.248,2.248,0,0,0,1.561.567,3.658,3.658,0,0,0,.953-.119,2.545,2.545,0,0,0,.715-.3,4.341,4.341,0,0,0,.477-.352,1.507,1.507,0,0,0,.284-.3l.078-.113L77.1,43.436a1.558,1.558,0,0,0-.181.078,3.238,3.238,0,0,0-.4.244,2.462,2.462,0,0,0-.5.449,2.616,2.616,0,0,0-.4.7,2.558,2.558,0,0,0-.181.967Zm17.612,3.1a.769.769,0,0,1-.21-.29.639.639,0,0,1,.1-.369l1.09-1.93a.478.478,0,0,1,.409-.222.5.5,0,0,1,.388.085l.171.1q.171.113.388.25t.55.31q.335.171.676.31a4.852,4.852,0,0,0,.75.227,3.566,3.566,0,0,0,.775.091,1.688,1.688,0,0,0,1.153-.391,1.274,1.274,0,0,0,.449-1.008q0-1.408-2.4-2.35a12.984,12.984,0,0,1-1.24-.567,8.573,8.573,0,0,1-1.2-.775,6.248,6.248,0,0,1-1.056-1.008,4.63,4.63,0,0,1-.721-1.26,4.175,4.175,0,0,1-.3-1.539,4.283,4.283,0,0,1,.347-1.7,4.74,4.74,0,0,1,.994-1.473,4.651,4.651,0,0,1,1.692-1.056,6.536,6.536,0,0,1,2.339-.4,8.263,8.263,0,0,1,4.974,1.749.424.424,0,0,1,.215.369.5.5,0,0,1-.068.369l-1.191,1.8a.76.76,0,0,1-.374.31.407.407,0,0,1-.408-.012q-.012-.012-.278-.188t-.584-.357q-.318-.181-.726-.388a4.922,4.922,0,0,0-.874-.335,3.21,3.21,0,0,0-.862-.135,1.561,1.561,0,0,0-1.039.357,1.065,1.065,0,0,0-.426.835,1.555,1.555,0,0,0,.584,1.181,7.01,7.01,0,0,0,1.947,1.079q.659.261,1.2.522a9.369,9.369,0,0,1,1.226.738,6.239,6.239,0,0,1,1.153,1.008,4.793,4.793,0,0,1,.795,1.329,4.405,4.405,0,0,1,.329,1.705,4.257,4.257,0,0,1-.388,1.766,5.038,5.038,0,0,1-1.073,1.533,5.109,5.109,0,0,1-1.743,1.09,6.224,6.224,0,0,1-2.294.415,9.862,9.862,0,0,1-1.993-.193,6.735,6.735,0,0,1-1.578-.505,8.583,8.583,0,0,1-1.028-.574,4.341,4.341,0,0,1-.633-.509Zm15.908,1.351v6.734a.465.465,0,0,1-.443.443h-2.577a.465.465,0,0,1-.443-.443V41.676a.465.465,0,0,1,.443-.443h1.09q.329,0,.488.465l.273.76.13-.159a3.683,3.683,0,0,1,.381-.352,4.29,4.29,0,0,1,.63-.443,4.093,4.093,0,0,1,.874-.352,3.9,3.9,0,0,1,1.107-.159,4.36,4.36,0,0,1,2.345.659,4.6,4.6,0,0,1,1.658,1.777,5.121,5.121,0,0,1,.6,2.447,5.864,5.864,0,0,1-.369,2.14,4.041,4.041,0,0,1-1.008,1.539,4.419,4.419,0,0,1-1.472.9,5.052,5.052,0,0,1-1.777.31,4.51,4.51,0,0,1-1.107-.142,3.539,3.539,0,0,1-.822-.3Zm-.374-4.429a1.88,1.88,0,0,0,3.2,1.318,1.789,1.789,0,0,0,.543-1.323A1.86,1.86,0,0,0,110.45,44a1.783,1.783,0,0,0-1.329.543,1.855,1.855,0,0,0-.532,1.357Zm8.13,1.794a2.929,2.929,0,0,1,.93-2.243,3.5,3.5,0,0,1,2.487-.869,4.594,4.594,0,0,1,.914.091,3.766,3.766,0,0,1,.664.181l.216.091a1.764,1.764,0,0,0-.239-1.056,1.273,1.273,0,0,0-1.022-.31,10.077,10.077,0,0,0-2.316.34q-.477.147-.557-.488l-.215-1.465a.5.5,0,0,1,.352-.625,9.671,9.671,0,0,1,1.246-.212,13.868,13.868,0,0,1,1.839-.136,4.093,4.093,0,0,1,3.032.93,4.25,4.25,0,0,1,.9,3.023v5.144a.465.465,0,0,1-.443.443h-1.022a.445.445,0,0,1-.42-.31l-.318-.625a7.577,7.577,0,0,1-.653.533,3.587,3.587,0,0,1-.891.42,3.862,3.862,0,0,1-1.272.2,3.237,3.237,0,0,1-2.305-.853,2.9,2.9,0,0,1-.906-2.211Zm3.032-.227a1,1,0,0,0,.29.721.947.947,0,0,0,.71.3,1.027,1.027,0,0,0,1.022-1.022,1.008,1.008,0,0,0-.318-.693.981.981,0,0,0-.7-.284.965.965,0,0,0-.71.29.939.939,0,0,0-.292.686Z" transform="translate(430.238 33.509)" fill="#fa983a"/>
  </g>
</svg>
