<svg xmlns="http://www.w3.org/2000/svg" width="50" height="50" viewBox="0 0 50 50">
  <g id="massage" transform="translate(0 -0.748)">
    <rect id="Rectangle_22" data-name="Rectangle 22" width="49.904" height="3.949" transform="translate(0 35.44)" fill="#80cbc4"/>
    <g id="Group_66" data-name="Group 66" transform="translate(9.286 35.44)">
      <path id="Path_136" data-name="Path 136" d="M370.25,355.4v-1.062H355.306v3.949H370.25v-.452c-.095-.112-.193-.221-.3-.325a5.283,5.283,0,0,0-1.3-.953A4.816,4.816,0,0,0,370.25,355.4Z" transform="translate(-329.632 -354.338)" fill="#26a69a"/>
      <rect id="Rectangle_23" data-name="Rectangle 23" width="15.711" height="3.949" fill="#26a69a"/>
    </g>
    <path id="Path_137" data-name="Path 137" d="M215.758,103.8a3.353,3.353,0,0,0-2.944-1.749H210.23v1.341a2.395,2.395,0,1,1-4.79,0v-1.341h-2.588a3.353,3.353,0,0,0-2.945,1.75l-2.485,4.564,2.547,1.436,2.069-3.535h.4l1.13,6.514v6.993h8.143V112.78l1.444-6.514h.376l2.143,3.547,2.568-1.448Z" transform="translate(-177.901 -91.269)" fill="#82b1ff"/>
    <path id="Path_138" data-name="Path 138" d="M269.632,218.606l-3.815,3.815c-.022.022-.043.045-.064.068-.022-.023-.042-.046-.065-.068l-4.2-4.2v6.572h8.143v-6.188Z" transform="translate(-235.866 -196.109)" fill="#448aff"/>
    <path id="Path_139" data-name="Path 139" d="M48.234,287.786a3.315,3.315,0,0,1,1,2.371H38.607a1.933,1.933,0,0,1-1.95-1.916v-4.981H0v-4.215H10.529a6,6,0,0,1,6.942-3.126l3.1.827,16.631,0a2.987,2.987,0,0,1,2,.855,2.887,2.887,0,0,1,.872,2.065h2.34l1.072-1.437h2.827a2.942,2.942,0,0,1,2.068.842,2.84,2.84,0,0,1,.857,2.032,2.9,2.9,0,0,1-2.925,2.874H43.482l-1.072-1.437h-2.34V286.8h5.752A3.434,3.434,0,0,1,48.234,287.786Z" transform="translate(0 -247.809)" fill="#fdd8a8"/>
    <g id="Group_67" data-name="Group 67" transform="translate(0 27.788)">
      <path id="Path_140" data-name="Path 140" d="M24.141,278.719l.371.371a3.433,3.433,0,0,0,2.4,1.025,3.337,3.337,0,0,0,2.382-.982l.064-.067.064.067a3.349,3.349,0,0,0,4.742,0l2.387-2.387v0H20.213l-3.045-.827a5.859,5.859,0,0,0-6.822,3.126H8.43v2.3H0v1.916H36.02a1.916,1.916,0,0,0-1.916-1.916H24.141Z" transform="translate(0 -275.712)" fill="#ffc477"/>
      <path id="Path_141" data-name="Path 141" d="M437.984,323.538h-2.778l-1.054-.862v1.272l1.054,1.437h2.778a2.875,2.875,0,0,0,2.7-3.869A3.237,3.237,0,0,1,437.984,323.538Z" transform="translate(-391.624 -317.12)" fill="#ffc477"/>
    </g>
    <path id="Path_142" data-name="Path 142" d="M278.619,20.974a2.4,2.4,0,0,0,2.395-2.395V17.238h-.981V15.322l1.437-1.054V11.107a2.874,2.874,0,1,0-5.748,0v3.161l1.437,1.054v1.916h-.935v1.341A2.4,2.4,0,0,0,278.619,20.974Z" transform="translate(-248.735 -6.767)" fill="#fdd8a8"/>
    <g id="Group_68" data-name="Group 68" transform="translate(4.007 39.636)">
      <rect id="Rectangle_24" data-name="Rectangle 24" width="2.874" height="11.112" fill="#b0bec5"/>
      <rect id="Rectangle_25" data-name="Rectangle 25" width="2.874" height="8.164" transform="translate(37.85 2.949)" fill="#b0bec5"/>
    </g>
    <path id="Path_143" data-name="Path 143" d="M117.657,276.744l-3.046-.827a5.859,5.859,0,0,0-6.821,3.126v12.57h11.879V276.744Z" transform="translate(-97.206 -247.571)" fill="#f8bbd0"/>
    <g id="Group_69" data-name="Group 69" transform="translate(17.62 17.229)">
      <path id="Path_144" data-name="Path 144" d="M177.364,171.368l8.887,8.886a1.437,1.437,0,0,0,2.032,0h0a1.437,1.437,0,0,0,0-2.032l-7.372-7.372.926-1.582-2.547-1.436Z" transform="translate(-177.364 -167.832)" fill="#fdd8a8"/>
      <path id="Path_145" data-name="Path 145" d="M325.717,167.839l-2.568,1.448.948,1.57-7.372,7.372a1.437,1.437,0,0,0,0,2.032h0a1.437,1.437,0,0,0,2.032,0l8.887-8.886Z" transform="translate(-302.969 -167.838)" fill="#fdd8a8"/>
    </g>
    <g id="Group_70" data-name="Group 70" transform="translate(4.007 39.636)">
      <rect id="Rectangle_26" data-name="Rectangle 26" width="2.874" height="1.916" transform="translate(37.85 2.949)" fill="#90a4ae"/>
      <rect id="Rectangle_27" data-name="Rectangle 27" width="2.874" height="1.916" fill="#90a4ae"/>
    </g>
    <path id="Path_146" data-name="Path 146" d="M283.347,103.68a2.4,2.4,0,0,1-2.269-1.629h-.126v1.341a2.395,2.395,0,0,0,4.79,0v-1.341h-.126A2.4,2.4,0,0,1,283.347,103.68Z" transform="translate(-253.465 -91.365)" fill="#ffc477"/>
    <rect id="Rectangle_28" data-name="Rectangle 28" width="8.143" height="11.112" transform="translate(25.623 39.636)" fill="#82b1ff"/>
    <rect id="Rectangle_29" data-name="Rectangle 29" width="8.143" height="1.916" transform="translate(25.623 39.44)" fill="#448aff"/>
    <path id="Path_147" data-name="Path 147" d="M50,38.676H47.612a4.116,4.116,0,0,0-1.8-.413h-5.02V35.379h1.238L43.1,36.846h3.2a3.667,3.667,0,0,0,2.584-6.257A3.626,3.626,0,0,0,46.3,29.514H43.1l-1.072,1.466h-1.31A3.713,3.713,0,0,0,37.086,28H36.2l7.127-7.147L38.576,12.1a4.138,4.138,0,0,0-3.637-2.167h-2.9v-.85L33.5,8.011v-3.6a3.655,3.655,0,1,0-7.31,0v3.6l1.462,1.075v.85H24.8A4.137,4.137,0,0,0,21.166,12.1l-4.749,8.747L23.544,28H20.663l-3-.818a6.681,6.681,0,0,0-7.575,3.164H0v1.466H9.8v2.835H0v1.466H9.8v2.563H0v1.466H3.346V50.748H4.808V40.142H6.27V50.748H7.732V40.142H9.8v4.5H23.343v-4.5h1.462V50.748h1.462V40.142H28.9V50.748h1.462V40.142H33.09V50.748h1.462V40.142h1.365v.321a2.687,2.687,0,0,0,2.68,2.688h2.388v7.6h1.462v-7.6h1.462v7.6h1.462v-7.6h4.581v-.733a4.135,4.135,0,0,0-.676-2.276H50ZM32.868,29.27a.732.732,0,0,1-1.034-1.037L39.739,20.3l-.871-1.446,1.311-.741,1.344,2.473ZM37.9,20.08l-3.344,3.354V21.7l1.16-5.245ZM27.657,4.414a2.193,2.193,0,1,1,4.386,0V7.268L30.581,8.343V11.4h1v.635a1.706,1.706,0,1,1-3.411,0V11.4h.951V8.343L27.657,7.268V4.414Zm-8.09,13.7,1.3.734-.852,1.46,7.9,7.923a.732.732,0,1,1-1.034,1.037L18.224,20.59Zm4.347-1.587.891,5.152v1.362l-2.96-2.969ZM11.257,43.172V31.253A5.221,5.221,0,0,1,17.275,28.6l3.192.869h1.413V43.172Zm12.086-4.5V36.113H35.916v2.563ZM38.6,41.684a1.221,1.221,0,0,1-1.218-1.222V34.646H23.343V29.465h1.663l.839.841a2.2,2.2,0,0,0,3.1-3.11l-2.679-2.687V21.555L25,14.238H23.558L21.6,17.585l-1.338-.756,2.184-4.023A2.677,2.677,0,0,1,24.8,11.4h1.9v.635a3.168,3.168,0,1,0,6.335,0V11.4h1.9a2.678,2.678,0,0,1,2.354,1.4l2.187,4.025-1.367.773-2.027-3.365H34.7l-1.614,7.3V24.9L30.8,27.2a2.2,2.2,0,0,0,1.55,3.754h0a2.175,2.175,0,0,0,1.55-.644l.839-.841h2.346a2.247,2.247,0,0,1,2.242,2.248v.733h3.441l1.072-1.466H46.3a2.2,2.2,0,0,1,2.193,2.2,2.2,2.2,0,0,1-2.193,2.2H43.84l-1.072-1.466H39.327v5.816h6.481a2.685,2.685,0,0,1,2.58,1.955H38.6Z" transform="translate(0 0)"/>
    <g id="Group_71" data-name="Group 71" transform="translate(12.838 16.81)">
      <path id="Path_148" data-name="Path 148" d="M131.682,325.692h-1.437v-1.437h1.437Zm0-2.874h-1.437v-1.437h1.437Zm0-2.874h-1.437v-1.437h1.437Zm0-2.874h-1.437v-1.437h1.437Z" transform="translate(-130.245 -300.833)" fill="#fff"/>
      <path id="Path_149" data-name="Path 149" d="M195.558,325.692h-1.437v-1.437h1.437Zm0-2.874h-1.437v-1.437h1.437Zm0-2.874h-1.437v-1.437h1.437Zm0-2.874h-1.437v-1.437h1.437Z" transform="translate(-187.99 -300.833)" fill="#fff"/>
      <rect id="Rectangle_30" data-name="Rectangle 30" width="1.437" height="1.437" transform="translate(15.902)" fill="#fff"/>
      <rect id="Rectangle_31" data-name="Rectangle 31" width="1.437" height="1.437" transform="translate(15.902 3.425)" fill="#fff"/>
      <rect id="Rectangle_32" data-name="Rectangle 32" width="1.437" height="1.437" transform="translate(15.902 6.849)" fill="#fff"/>
    </g>
  </g>
</svg>
