<svg xmlns="http://www.w3.org/2000/svg" width="48.164" height="50" viewBox="0 0 48.164 50">
  <g id="skin-care" transform="translate(-0.262)">
    <path id="Path_99" data-name="Path 99" d="M31.832,467.633H26.869a.529.529,0,0,1-.529-.529v-1.3h6.022v1.3A.529.529,0,0,1,31.832,467.633Zm0,0" transform="translate(-23.382 -418.047)" fill="#f9a7a7"/>
    <path id="Path_100" data-name="Path 100" d="M157.325,75.913h-.452a12.2,12.2,0,0,1-12.2-12.2V57.095a12.2,12.2,0,0,1,12.2-12.2h.452a12.2,12.2,0,0,1,12.2,12.2v6.622A12.2,12.2,0,0,1,157.325,75.913Zm0,0" transform="translate(-129.483 -40.256)" fill="#4671c6"/>
    <path id="Path_101" data-name="Path 101" d="M153.739,72.741h-.452a12.625,12.625,0,0,1-12.61-12.611V53.508a12.625,12.625,0,0,1,12.61-12.61h.452a12.625,12.625,0,0,1,12.61,12.61V60.13A12.625,12.625,0,0,1,153.739,72.741Zm-.452-31.015A11.8,11.8,0,0,0,141.5,53.508V60.13a11.8,11.8,0,0,0,11.783,11.783h.452A11.8,11.8,0,0,0,165.522,60.13V53.508a11.8,11.8,0,0,0-11.783-11.783Zm0,0" transform="translate(-125.897 -36.67)" fill="#3762cc"/>
    <path id="Path_102" data-name="Path 102" d="M149.981,346.288H148.8l-.366-.086a.786.786,0,0,1-.605-.764V343.9a11.221,11.221,0,0,1-10.343,0v1.611a.785.785,0,0,1-.519.739l-.031.011a.738.738,0,0,1-.092.024H135.7a7.072,7.072,0,0,0-7.072,7.072v2.5h9v-.048h10.426v.048h9v-2.5a7.071,7.071,0,0,0-7.072-7.072Zm0,0" transform="translate(-115.099 -308.751)" fill="#f9cfcf"/>
    <path id="Path_103" data-name="Path 103" d="M147.918,99.776c-.024,0-.047,0-.071,0v-1.06a11.223,11.223,0,1,0-22.446,0v1.06c-.024,0-.047,0-.071,0a3.424,3.424,0,1,0,.368,6.828,11.222,11.222,0,0,0,21.853,0,3.424,3.424,0,1,0,.368-6.828Zm0,0" transform="translate(-109.067 -78.611)" fill="#f9cfcf"/>
    <g id="Group_62" data-name="Group 62" transform="translate(12.425 8.472)">
      <path id="Path_104" data-name="Path 104" d="M133.038,112.1a11.58,11.58,0,0,1-11.245-8.645h-.049a3.838,3.838,0,0,1-.342-7.66v-.658a11.637,11.637,0,1,1,23.273,0v.658a3.838,3.838,0,0,1-.343,7.66h-.049A11.579,11.579,0,0,1,133.038,112.1ZM122.112,102.6a.413.413,0,0,1,.4.32,10.809,10.809,0,0,0,21.048,0,.413.413,0,0,1,.446-.317,3.01,3.01,0,1,0,.326-6l-.067,0h-.007a.414.414,0,0,1-.414-.414V95.132a10.809,10.809,0,1,0-21.619,0v1.061a.413.413,0,0,1-.421.413l-.055,0h0a3.01,3.01,0,1,0-.008,6.02,2.9,2.9,0,0,0,.323-.018l.044,0Zm0,0" transform="translate(-117.906 -83.496)" fill="#3762cc"/>
      <path id="Path_105" data-name="Path 105" d="M202.133,214.806a1.141,1.141,0,0,1-1.141-1.141v-1.9a1.142,1.142,0,0,1,2.283,0v1.9A1.141,1.141,0,0,1,202.133,214.806Zm0,0" transform="translate(-192.402 -197.478)" fill="#3762cc"/>
      <path id="Path_106" data-name="Path 106" d="M306.594,214.806a1.141,1.141,0,0,1-1.141-1.141v-1.9a1.141,1.141,0,1,1,2.283,0v1.9A1.141,1.141,0,0,1,306.594,214.806Zm0,0" transform="translate(-286.063 -197.478)" fill="#3762cc"/>
      <path id="Path_107" data-name="Path 107" d="M239.469,283.04c-1.6,0-2.859-.9-2.859-2.044a.414.414,0,0,1,.827,0c0,.66.93,1.217,2.032,1.217s2.032-.557,2.032-1.217a.414.414,0,0,1,.827,0C242.328,282.142,241.072,283.04,239.469,283.04Zm0,0" transform="translate(-224.337 -260.206)" fill="#3762cc"/>
    </g>
    <path id="Path_108" data-name="Path 108" d="M161.093,58.609h-1.4v0c-7.362,1.317-12.424,6.967-11.317,12.652l.018.091,4.684-.817A8.483,8.483,0,0,0,160.3,63.2h.039a8.524,8.524,0,0,0,6.917,7.667l4.691,1.059.023-.09c1.417-5.625-3.41-11.536-10.788-13.229Zm0,0" transform="translate(-132.663 -52.55)" fill="#4671c6"/>
    <path id="Path_109" data-name="Path 109" d="M164.9,98.233s-.464-.1-1.313-.237q-.457-.076-.9-.142h0c-.213-.032-.424-.062-.633-.09l-.015,0L162,97.756q-.347-.047-.686-.088c-.868-.1-1.691-.181-2.462-.236l-.042,0c-.557-.039-1.088-.066-1.589-.084h0q-.245-.009-.48-.015l-.06,0-.1,0h-.064l-.13,0a64.57,64.57,0,0,0-13.423.91h0A9.054,9.054,0,0,0,141,103.887v.47a77.488,77.488,0,0,1,14.731-1.062,76.246,76.246,0,0,1,8.255.644l.019,0,.288.041.094.014.309.046c.6.093,1.207.2,1.794.315v-1.243a8.279,8.279,0,0,0-1.584-4.881Zm0,0" transform="translate(-126.184 -87.317)" fill="#e0ebfc"/>
    <path id="Path_110" data-name="Path 110" d="M162.9,101.18a.418.418,0,0,1-.081-.008c-.551-.11-1.149-.215-1.776-.311l-.685-.1-.021,0a76.627,76.627,0,0,0-22.857.417.413.413,0,0,1-.483-.408v-.47a9.4,9.4,0,0,1,2.036-5.876.414.414,0,0,1,.268-.184l.009,0a64.642,64.642,0,0,1,13.509-.916l.347.007.485.015c.528.019,1.067.048,1.6.085l.043,0c.819.058,1.655.138,2.483.238q.342.041.691.088l.039.005c.223.031.437.061.651.093h0c.3.044.6.091.906.142.849.136,1.314.237,1.333.241a.415.415,0,0,1,.246.161,8.669,8.669,0,0,1,1.662,5.123v1.244a.414.414,0,0,1-.414.414Zm-23.286-6.159a8.577,8.577,0,0,0-1.789,5.256,77.439,77.439,0,0,1,22.629-.339l.028,0,.687.1c.456.07.9.145,1.317.223v-.743a7.841,7.841,0,0,0-1.413-4.508c-.2-.04-.587-.113-1.135-.2-.3-.05-.6-.1-.9-.141h0c-.21-.031-.419-.061-.625-.089l.022-.414-.055.41c-.248-.034-.475-.062-.7-.089-.815-.1-1.636-.177-2.443-.234l-.021,0h-.021c-.527-.037-1.057-.065-1.575-.084l-.477-.015-.349-.007a63.926,63.926,0,0,0-13.183.875Zm0,0" transform="translate(-122.594 -83.725)" fill="#3762cc"/>
    <path id="Path_111" data-name="Path 111" d="M159.355,97.536l.011,0a28.131,28.131,0,0,0-3.353-.2v-.006a64.447,64.447,0,0,0-13.05.921h0a9.14,9.14,0,0,0-.889,1.349c-.009.016-.019.03-.028.046s-.028.059-.043.088c-.051.1-.1.2-.147.3-.02.042-.04.082-.059.124-.061.136-.119.274-.174.413-.02.051-.04.1-.059.154q-.062.165-.117.332c-.014.043-.029.086-.043.129q-.07.223-.128.451c-.011.042-.02.085-.031.127-.029.123-.057.247-.082.372-.009.044-.018.088-.026.133-.029.16-.055.321-.076.483,0,.028-.006.056-.009.084q-.025.211-.04.425c0,.046-.006.091-.009.137-.009.169-.016.339-.016.51v.47a77.493,77.493,0,0,1,14.731-1.062s.1,0,.291.006v-.034l3.426-.328a2.762,2.762,0,0,0,2.529-2.782,2.709,2.709,0,0,0-2.613-2.63Zm0,0" transform="translate(-126.18 -87.327)" fill="#e0ebfc"/>
    <path id="Path_112" data-name="Path 112" d="M137.406,101.191a.413.413,0,0,1-.414-.414v-.47c0-.16.005-.33.017-.533l.009-.144q.016-.224.042-.444l.01-.089c.02-.161.046-.327.079-.5.007-.038.015-.077.023-.116l0-.024c.025-.129.054-.259.085-.387l.032-.132q.062-.24.134-.473c.009-.029.019-.058.029-.088l.016-.046c.039-.118.08-.233.123-.349.019-.052.039-.106.06-.159.058-.147.118-.291.183-.433q.019-.042.04-.084l.022-.046q.074-.157.154-.312l.015-.032c.01-.02.019-.04.029-.059s.021-.038.032-.056a9.594,9.594,0,0,1,.9-1.369.415.415,0,0,1,.268-.184l.009,0a64.631,64.631,0,0,1,13.134-.927.422.422,0,0,1,.064.007,28.172,28.172,0,0,1,3.336.208l.024,0a3.132,3.132,0,0,1,2.932,3.027,3.172,3.172,0,0,1-2.9,3.206l-3.265.313a.4.4,0,0,1-.211.052l-.287-.006a76.854,76.854,0,0,0-14.655,1.056.4.4,0,0,1-.069.006Zm2.2-6.159a8.784,8.784,0,0,0-.753,1.166l-.041.073c-.009.019-.018.038-.028.057-.048.092-.094.187-.139.282l-.057.119c-.059.129-.113.261-.166.394-.019.048-.037.1-.055.146-.04.105-.076.211-.112.317l-.041.122q-.067.213-.123.431l-.029.121c-.028.117-.055.235-.078.354l-.025.127c-.028.153-.052.307-.072.462l-.009.08c-.016.135-.028.27-.038.407l-.008.131c-.01.179-.015.328-.015.468a77.808,77.808,0,0,1,14.326-.987l.125,0a.4.4,0,0,1,.117-.028l3.426-.328a2.344,2.344,0,0,0,2.155-2.358,2.3,2.3,0,0,0-2.214-2.229.419.419,0,0,1-.109-.018,29.634,29.634,0,0,0-3.224-.19.41.41,0,0,1-.078-.008,63.763,63.763,0,0,0-12.735.889Zm0,0" transform="translate(-122.594 -83.735)" fill="#3762cc"/>
    <path id="Path_113" data-name="Path 113" d="M181.37,414.11H159.762v-4.053a1.185,1.185,0,0,1,1.185-1.185h19.238a1.185,1.185,0,0,1,1.185,1.185Zm0,0" transform="translate(-143.009 -367.003)" fill="#e0ebfc"/>
    <path id="Path_114" data-name="Path 114" d="M177.784,410.937H156.176a.414.414,0,0,1-.414-.414V406.47a1.6,1.6,0,0,1,1.6-1.6H176.6a1.6,1.6,0,0,1,1.6,1.6v4.053a.414.414,0,0,1-.414.414Zm-21.195-.827H177.37v-3.64a.772.772,0,0,0-.771-.772H157.361a.772.772,0,0,0-.771.772v3.64Zm0,0" transform="translate(-139.423 -363.417)" fill="#3762cc"/>
    <path id="Path_115" data-name="Path 115" d="M153.467,352.687h-9a.411.411,0,0,1-.193-.048H134.236a.411.411,0,0,1-.193.048h-9a.414.414,0,0,1-.414-.414v-2.5a7.494,7.494,0,0,1,7.485-7.486h1.089l.031-.011a.373.373,0,0,0,.246-.35v-1.611a.414.414,0,0,1,.6-.367,10.808,10.808,0,0,0,9.961,0,.414.414,0,0,1,.6.367v1.535a.371.371,0,0,0,.287.363l.319.075H146.4a7.494,7.494,0,0,1,7.485,7.485v2.5A.414.414,0,0,1,153.467,352.687Zm-8.8-.827h8.391v-2.084a6.666,6.666,0,0,0-6.658-6.658h-1.183a.418.418,0,0,1-.095-.011l-.366-.086a1.2,1.2,0,0,1-.924-1.168v-.875a11.64,11.64,0,0,1-9.516,0v.952a1.2,1.2,0,0,1-.793,1.128l-.032.012a1.152,1.152,0,0,1-.141.038.437.437,0,0,1-.091.01h-1.136a6.666,6.666,0,0,0-6.658,6.659v2.084h8.391a.407.407,0,0,1,.193-.048H144.47a.4.4,0,0,1,.193.047Zm0,0" transform="translate(-111.513 -305.168)" fill="#3762cc"/>
    <path id="Path_116" data-name="Path 116" d="M11.335,244.824H4.262l.876,20.668a.4.4,0,0,0,.432.345h7.972a.4.4,0,0,0,.432-.345l.876-20.668Zm0,0" transform="translate(-3.586 -219.917)" fill="#6bdddd"/>
    <path id="Path_117" data-name="Path 117" d="M28.248,280.009l-.688-16.246a.53.53,0,0,1,.576-.493h4.617a.53.53,0,0,1,.576.493l-.688,16.246a.538.538,0,0,1-.576.46H28.824a.538.538,0,0,1-.576-.46Zm0,0" transform="translate(-24.475 -236.455)" fill="#e0ebfc"/>
    <path id="Path_118" data-name="Path 118" d="M31.832,451.739H26.869a.529.529,0,0,1-.529-.529v-3.136h6.022v3.136A.529.529,0,0,1,31.832,451.739Zm0,0" transform="translate(-23.382 -402.153)" fill="#a4c9ff"/>
    <path id="Path_119" data-name="Path 119" d="M46.259,456.327v-.642a.45.45,0,0,0-.45-.45h-1.5a.45.45,0,0,0-.45.45v.642Zm0,0" transform="translate(-39.09 -408.573)" fill="#e0ebfc"/>
    <path id="Path_120" data-name="Path 120" d="M14.849,226.219H4.262v-1.886a.259.259,0,0,1,.259-.259H14.59a.259.259,0,0,1,.259.259Zm0,0" transform="translate(-3.586 -201.102)" fill="#a4c9ff"/>
    <path id="Path_121" data-name="Path 121" d="M9.955,262.661H1.984a.812.812,0,0,1-.845-.741L.263,241.251a.415.415,0,0,1,.413-.431H11.263a.414.414,0,0,1,.413.431L10.8,261.92a.812.812,0,0,1-.845.741Zm-7.993-.829.021,0H9.956l.021,0,.855-20.185H1.108Zm0,0" transform="translate(0 -216.327)" fill="#3762cc"/>
    <path id="Path_122" data-name="Path 122" d="M28.246,448.563H23.283a.944.944,0,0,1-.943-.943v-3.136a.414.414,0,0,1,.414-.414h6.022a.414.414,0,0,1,.414.414v3.136a.944.944,0,0,1-.943.943ZM23.167,444.9v2.723a.116.116,0,0,0,.116.116h4.963a.116.116,0,0,0,.116-.116V444.9Zm0,0" transform="translate(-19.795 -398.563)" fill="#3762cc"/>
    <path id="Path_123" data-name="Path 123" d="M11.263,223.046H.676a.414.414,0,0,1-.414-.414v-1.886a.673.673,0,0,1,.672-.672H11a.673.673,0,0,1,.672.672v1.886a.414.414,0,0,1-.414.414Zm-10.174-.827h9.76V220.9H1.089Zm0,0" transform="translate(0 -197.515)" fill="#3762cc"/>
    <path id="Path_124" data-name="Path 124" d="M86.508,422.2H77.576a1.861,1.861,0,0,1-1.861-1.861V415.5a.372.372,0,0,1,.372-.372H88a.372.372,0,0,1,.372.372v4.839a1.861,1.861,0,0,1-1.861,1.861Zm0,0" transform="translate(-67.652 -372.61)" fill="#6bdddd"/>
    <path id="Path_125" data-name="Path 125" d="M94.132,397.371H83.214V395.7a.372.372,0,0,1,.372-.372H93.76a.372.372,0,0,1,.372.372Zm0,0" transform="translate(-74.376 -354.857)" fill="#e0ebfc"/>
    <path id="Path_126" data-name="Path 126" d="M101.468,355.566a.186.186,0,0,0-.28-.05l-.761.634a2.281,2.281,0,0,1-1.458.527H96.577a3.166,3.166,0,0,0-3.142,2.774l-.017.142h8.746a3.525,3.525,0,0,0,.145-.6h.044a4.982,4.982,0,0,0-.886-3.43Zm0,0" transform="translate(-83.524 -319.043)" fill="#e0ebfc"/>
    <path id="Path_127" data-name="Path 127" d="M82.926,419.024H73.993a2.277,2.277,0,0,1-2.275-2.275v-4.839a.786.786,0,0,1,.786-.786h11.91a.787.787,0,0,1,.786.786v4.839a2.277,2.277,0,0,1-2.275,2.275Zm-10.38-7.072v4.8a1.449,1.449,0,0,0,1.447,1.447h8.933a1.449,1.449,0,0,0,1.447-1.447v-4.8Zm0,0" transform="translate(-64.069 -369.024)" fill="#3762cc"/>
    <path id="Path_128" data-name="Path 128" d="M90.546,394.2H79.628a.414.414,0,0,1-.414-.414V392.11a.787.787,0,0,1,.786-.786H90.173a.787.787,0,0,1,.786.786v1.675a.414.414,0,0,1-.414.414Zm-10.5-.827H90.132v-1.22H80.042Zm0,0" transform="translate(-70.789 -351.271)" fill="#3762cc"/>
    <path id="Path_129" data-name="Path 129" d="M98.576,356.424H89.829a.413.413,0,0,1-.41-.465l.018-.142a3.58,3.58,0,0,1,3.552-3.136H95.38a1.868,1.868,0,0,0,1.193-.432l.762-.634a.6.6,0,0,1,.888.138,5.341,5.341,0,0,1,.948,3.738.418.418,0,0,1-.075.17,3.836,3.836,0,0,1-.13.483A.414.414,0,0,1,98.576,356.424Zm-8.258-.827h7.947q.028-.121.048-.247a.413.413,0,0,1,.073-.178,4.525,4.525,0,0,0-.717-2.758l-.566.471a2.7,2.7,0,0,1-1.722.623H92.989a2.753,2.753,0,0,0-2.671,2.088Zm7.2-3.407h0Zm0,0" transform="translate(-79.936 -315.462)" fill="#3762cc"/>
    <path id="Path_130" data-name="Path 130" d="M45.346,95.621a8.125,8.125,0,0,1-3.293,3.632.383.383,0,0,0,0,.666,8.12,8.12,0,0,1,3.293,3.632.381.381,0,0,0,.693,0,8.118,8.118,0,0,1,3.294-3.632.383.383,0,0,0,0-.666,8.124,8.124,0,0,1-3.294-3.632A.381.381,0,0,0,45.346,95.621Zm0,0" transform="translate(-37.297 -85.631)" fill="#ffea92"/>
    <path id="Path_131" data-name="Path 131" d="M89.168,39.574a5.686,5.686,0,0,1-2.305,2.543.268.268,0,0,0,0,.466,5.684,5.684,0,0,1,2.305,2.543.267.267,0,0,0,.485,0,5.684,5.684,0,0,1,2.305-2.543.268.268,0,0,0,0-.466,5.686,5.686,0,0,1-2.305-2.543A.267.267,0,0,0,89.168,39.574Zm0,0" transform="translate(-77.525 -35.344)" fill="#ffea92"/>
    <path id="Path_132" data-name="Path 132" d="M372.829,307.666a8.125,8.125,0,0,1-3.294,3.632.383.383,0,0,0,0,.666,8.123,8.123,0,0,1,3.294,3.632.381.381,0,0,0,.693,0,8.123,8.123,0,0,1,3.294-3.632.383.383,0,0,0,0-.666,8.125,8.125,0,0,1-3.294-3.632A.381.381,0,0,0,372.829,307.666Zm0,0" transform="translate(-330.922 -275.964)" fill="#ffea92"/>
    <path id="Path_133" data-name="Path 133" d="M416.651,251.617a5.689,5.689,0,0,1-2.306,2.543.268.268,0,0,0,0,.466,5.689,5.689,0,0,1,2.306,2.543.267.267,0,0,0,.485,0,5.687,5.687,0,0,1,2.306-2.543.268.268,0,0,0,0-.466,5.685,5.685,0,0,1-2.306-2.543A.267.267,0,0,0,416.651,251.617Zm0,0" transform="translate(-371.15 -225.7)" fill="#ffea92"/>
    <path id="Path_134" data-name="Path 134" d="M217.73,8.225h.452a12.139,12.139,0,0,1,5.78,1.455V9.153A5.157,5.157,0,0,0,218.806,4h-1.1a5.157,5.157,0,0,0-5.157,5.157v.225a12.154,12.154,0,0,1,5.179-1.153Zm0,0" transform="translate(-190.341 -3.583)" fill="#4671c6"/>
    <path id="Path_135" data-name="Path 135" d="M220.381,6.511a.413.413,0,0,1-.2-.05A11.8,11.8,0,0,0,214.6,5.056h-.452a11.678,11.678,0,0,0-5,1.114.414.414,0,0,1-.589-.374V5.57A5.577,5.577,0,0,1,214.125,0h1.1a5.577,5.577,0,0,1,5.57,5.57V6.1a.414.414,0,0,1-.413.414Zm-6.233-2.282h.452a12.646,12.646,0,0,1,5.365,1.2,4.749,4.749,0,0,0-4.741-4.6h-1.1A4.75,4.75,0,0,0,209.4,5.155a12.488,12.488,0,0,1,4.747-.926Zm0,0" transform="translate(-186.758 0)" fill="#3762cc"/>
  </g>
</svg>
