<svg xmlns="http://www.w3.org/2000/svg" width="50" height="50" viewBox="0 0 50 50">
  <g id="spa-care" transform="translate(-1338 -1218)">
    <path id="Path_151" data-name="Path 151" d="M2,34H28.323V48.806H2Z" transform="translate(1336.823 1210.395)" fill="#bf9945"/>
    <path id="Path_152" data-name="Path 152" d="M25.032,55.258H5.29A3.29,3.29,0,0,1,2,51.968V30.581A6.581,6.581,0,0,1,8.581,24H21.742a6.581,6.581,0,0,1,6.581,6.581V51.968A3.29,3.29,0,0,1,25.032,55.258Z" transform="translate(1336.823 1211.919)" fill="#5f9747"/>
    <path id="Path_153" data-name="Path 153" d="M25.032,51.968V30.581A6.581,6.581,0,0,0,18.452,24H8.581A6.581,6.581,0,0,0,2,30.581V51.968a3.29,3.29,0,0,0,3.29,3.29H21.742A3.29,3.29,0,0,0,25.032,51.968Z" transform="translate(1336.823 1211.919)" fill="#7ec95f"/>
    <path id="Path_154" data-name="Path 154" d="M2,34H25.032V48.806H2Z" transform="translate(1336.823 1210.395)" fill="#e6e6e6"/>
    <path id="Path_155" data-name="Path 155" d="M2,34v6.581a1.645,1.645,0,0,0,3.29,0V38.935a1.645,1.645,0,0,1,3.29,0v4.935a1.645,1.645,0,1,0,3.29,0v-3.29a1.645,1.645,0,1,1,3.29,0v1.645a1.645,1.645,0,0,0,3.29,0V34" transform="translate(1336.823 1210.458)" fill="#8d9299"/>
    <path id="Path_156" data-name="Path 156" d="M10,16h3.29v6.581H10Z" transform="translate(1335.403 1214.061)" fill="#adadad"/>
    <path id="Path_157" data-name="Path 157" d="M14,16h3.29v6.581H14Z" transform="translate(1334.469 1214.061)" fill="#737373"/>
    <path id="Path_158" data-name="Path 158" d="M18,16h3.29v6.581H18Z" transform="translate(1333.691 1214.061)" fill="#adadad"/>
    <path id="Path_159" data-name="Path 159" d="M22,16h3.29v6.581H22Z" transform="translate(1332.912 1214.061)" fill="#737373"/>
    <path id="Path_160" data-name="Path 160" d="M16,8h3.29v6.581H16Z" transform="translate(1334.08 1215.758)" fill="#8d9299"/>
    <path id="Path_161" data-name="Path 161" d="M24.806,10.226V6.935H12.468a2.468,2.468,0,1,1,0-4.935H26.452a3.29,3.29,0,0,1,3.29,3.29v4.935Z" transform="translate(1335.403 1216.823)" fill="#adadad"/>
    <path id="Path_162" data-name="Path 162" d="M50,58h6.581v3.29H50Z" transform="translate(1327.306 1205.887)" fill="#7d5d3e"/>
    <path id="Path_163" data-name="Path 163" d="M30,58h6.581v3.29H30Z" transform="translate(1331.318 1205.887)" fill="#7d5d3e"/>
    <path id="Path_164" data-name="Path 164" d="M26,52H55.613v4.935H26Z" transform="translate(1331.564 1206.952)" fill="#a67c52"/>
    <path id="Path_165" data-name="Path 165" d="M26,52H53.145v4.935H26Z" transform="translate(1331.564 1206.952)" fill="#c69c6d"/>
    <path id="Path_166" data-name="Path 166" d="M51.855,44.935H30.468a2.468,2.468,0,1,1,0-4.935H51.855a2.468,2.468,0,0,1,0,4.935Z" transform="translate(1331.21 1209.384)" fill="#b24e4a"/>
    <path id="Path_167" data-name="Path 167" d="M51.855,42.468A2.468,2.468,0,0,0,49.387,40H30.468a2.468,2.468,0,1,0,0,4.935H49.387A2.468,2.468,0,0,0,51.855,42.468Z" transform="translate(1331.21 1209.384)" fill="#ed6863"/>
    <path id="Path_168" data-name="Path 168" d="M51.855,50.935H30.468a2.468,2.468,0,1,1,0-4.935H51.855a2.468,2.468,0,0,1,0,4.935Z" transform="translate(1331.21 1208.213)" fill="#b24e4a"/>
    <path id="Path_169" data-name="Path 169" d="M51.855,48.468A2.468,2.468,0,0,0,49.387,46H30.468a2.468,2.468,0,1,0,0,4.935H49.387A2.468,2.468,0,0,0,51.855,48.468Z" transform="translate(1331.21 1208.213)" fill="#ed6863"/>
    <path id="Path_170" data-name="Path 170" d="M50.564,38.935h-18.1a2.468,2.468,0,0,1,0-4.935h18.1a2.468,2.468,0,0,1,0,4.935Z" transform="translate(1330.855 1210.556)" fill="#b24e4a"/>
    <path id="Path_171" data-name="Path 171" d="M50.564,36.468A2.468,2.468,0,0,0,48.1,34H32.468a2.468,2.468,0,0,0,0,4.935H48.1A2.468,2.468,0,0,0,50.564,36.468Z" transform="translate(1330.855 1210.556)" fill="#ed6863"/>
    <path id="Path_172" data-name="Path 172" d="M38,26H52.806v6.581H38Z" transform="translate(1329.435 1212.102)" fill="#a67c52"/>
    <path id="Path_173" data-name="Path 173" d="M38,26H50.339v6.581H38Z" transform="translate(1329.648 1212.102)" fill="#c69c6d"/>
    <path id="Path_174" data-name="Path 174" d="M45.935,18.452a3.972,3.972,0,0,1-2.808-1.163l-.546-.546a5.4,5.4,0,0,1,.578-8.135A2.829,2.829,0,0,0,44.29,6.345V2l5.167,6.459a6.451,6.451,0,0,1-.475,8.592l-.238.238A3.972,3.972,0,0,1,45.935,18.452Z" transform="translate(1329.103 1216.823)" fill="#bf9945"/>
    <path id="Path_175" data-name="Path 175" d="M44.29,5.75V7.009a2.826,2.826,0,0,1-1.131,2.262,5.4,5.4,0,0,0-.578,8.136l.546.546A3.954,3.954,0,0,0,44.7,18.9a3.954,3.954,0,0,0,1.574-.948l.238-.238a6.452,6.452,0,0,0,.475-8.593Z" transform="translate(1329.148 1216.157)" fill="#ffcc5c"/>
    <path id="Path_176" data-name="Path 176" d="M55.435,57.581H25.823A.822.822,0,0,1,25,56.758V51.823A.822.822,0,0,1,25.823,51H55.435a.822.822,0,0,1,.823.823v4.935A.822.822,0,0,1,55.435,57.581Zm-28.79-1.645H54.613v-3.29H26.645Z" transform="translate(1331.742 1207.129)"/>
    <path id="Path_177" data-name="Path 177" d="M36.4,62.113H29.823A.822.822,0,0,1,29,61.29V58h1.645v2.468h4.935V58h1.645v3.29A.822.822,0,0,1,36.4,62.113Z" transform="translate(1331.494 1205.887)"/>
    <path id="Path_178" data-name="Path 178" d="M56.4,62.113H49.823A.822.822,0,0,1,49,61.29V58h1.645v2.468h4.935V58h1.645v3.29A.822.822,0,0,1,56.4,62.113Z" transform="translate(1327.484 1205.887)"/>
    <path id="Path_179" data-name="Path 179" d="M51.677,51.581H30.29a3.29,3.29,0,1,1,0-6.581H51.677a3.29,3.29,0,1,1,0,6.581ZM30.29,46.645a1.645,1.645,0,1,0,0,3.29H51.677a1.645,1.645,0,0,0,0-3.29Z" transform="translate(1331.387 1208.379)"/>
    <path id="Path_180" data-name="Path 180" d="M51.677,45.581H30.29a3.29,3.29,0,1,1,0-6.581H51.677a3.29,3.29,0,1,1,0,6.581ZM30.29,40.645a1.645,1.645,0,1,0,0,3.29H51.677a1.645,1.645,0,0,0,0-3.29Z" transform="translate(1331.387 1209.554)"/>
    <path id="Path_181" data-name="Path 181" d="M50.387,39.581H32.29a3.29,3.29,0,0,1,0-6.581h18.1a3.29,3.29,0,0,1,0,6.581Zm-18.1-4.935a1.645,1.645,0,0,0,0,3.29h18.1a1.645,1.645,0,0,0,0-3.29Z" transform="translate(1331.032 1210.73)"/>
    <path id="Path_182" data-name="Path 182" d="M24.855,55.9H5.113A4.118,4.118,0,0,1,1,51.79V30.4A7.411,7.411,0,0,1,8.4,23H21.564a7.411,7.411,0,0,1,7.4,7.4v1.645H27.323V30.4a5.765,5.765,0,0,0-5.758-5.758H8.4A5.765,5.765,0,0,0,2.645,30.4V51.79a2.471,2.471,0,0,0,2.468,2.468H24.855Z" transform="translate(1337 1212.097)"/>
    <path id="Path_183" data-name="Path 183" d="M22.984,23.226H9.823A.822.822,0,0,1,9,22.4V15.823A.822.822,0,0,1,9.823,15H22.984a.822.822,0,0,1,.823.823V22.4A.822.822,0,0,1,22.984,23.226ZM10.645,21.581H22.161V16.645H10.645Z" transform="translate(1335.581 1214.247)"/>
    <path id="Path_184" data-name="Path 184" d="M19.113,15.226h-3.29A.822.822,0,0,1,15,14.4V7.823A.822.822,0,0,1,15.823,7h3.29a.822.822,0,0,1,.823.823V14.4A.822.822,0,0,1,19.113,15.226Zm-2.468-1.645H18.29V8.645H16.645Z" transform="translate(1334.266 1215.936)"/>
    <path id="Path_185" data-name="Path 185" d="M29.564,10.871H24.629a.822.822,0,0,1-.823-.823V7.581H12.29A3.29,3.29,0,0,1,12.29,1H26.274a4.118,4.118,0,0,1,4.113,4.113v4.935A.822.822,0,0,1,29.564,10.871ZM25.452,9.226h3.29V5.113a2.471,2.471,0,0,0-2.468-2.468H12.29a1.645,1.645,0,0,0,0,3.29H24.629a.822.822,0,0,1,.823.823Z" transform="translate(1335.581 1217)"/>
    <path id="Path_186" data-name="Path 186" d="M13,16h1.645v6.581H13Z" transform="translate(1334.671 1214.061)"/>
    <path id="Path_187" data-name="Path 187" d="M17,16h1.645v6.581H17Z" transform="translate(1333.895 1214.061)"/>
    <path id="Path_188" data-name="Path 188" d="M21,16h1.645v6.581H21Z" transform="translate(1333.118 1214.061)"/>
    <path id="Path_189" data-name="Path 189" d="M21.564,49.452H1.823A.822.822,0,0,1,1,48.629V33.823A.822.822,0,0,1,1.823,33H28.145v1.645H2.645V47.806H21.564Z" transform="translate(1337 1210.561)"/>
    <path id="Path_190" data-name="Path 190" d="M53.452,32.4H51.806V26.645H38.645V32.4H37V25.823A.822.822,0,0,1,37.823,25H52.629a.822.822,0,0,1,.823.823Z" transform="translate(1329.613 1212.289)"/>
    <path id="Path_191" data-name="Path 191" d="M45.758,19.1a4.827,4.827,0,0,1-3.39-1.4l-.546-.546A6.177,6.177,0,0,1,40,12.747a6.251,6.251,0,0,1,2.488-4.977,2.014,2.014,0,0,0,.8-1.6V1.823a.823.823,0,0,1,1.465-.514l5.167,6.459a7.274,7.274,0,0,1-.536,9.688l-.238.238A4.827,4.827,0,0,1,45.758,19.1ZM44.935,4.168v2a3.669,3.669,0,0,1-1.459,2.92,4.594,4.594,0,0,0-1.831,3.66,4.546,4.546,0,0,0,1.34,3.236l.546.546a3.15,3.15,0,0,0,4.453,0l.238-.238a5.628,5.628,0,0,0,.415-7.5Z" transform="translate(1329.081 1217)"/>
    <path id="Path_192" data-name="Path 192" d="M46,22h1.645v3.29H46Z" transform="translate(1328.266 1212.912)"/>
    <path id="Path_193" data-name="Path 193" d="M10.048,46.339a2.471,2.471,0,0,1-2.468-2.468V38.935a.823.823,0,0,0-1.645,0v1.645a2.468,2.468,0,0,1-4.935,0V34H2.645v6.581a.823.823,0,0,0,1.645,0V38.935a2.468,2.468,0,0,1,4.935,0v4.935a.823.823,0,0,0,1.645,0v-3.29a2.468,2.468,0,1,1,4.935,0v1.645a.823.823,0,0,0,1.645,0V34H19.1v8.226a2.468,2.468,0,0,1-4.935,0V40.581a.823.823,0,1,0-1.645,0v3.29A2.471,2.471,0,0,1,10.048,46.339Z" transform="translate(1337 1210.443)"/>
  </g>
</svg>
