<svg width="15" height="20" viewBox="0 0 15 20" fill="none" xmlns="http://www.w3.org/2000/svg">
<path d="M0.432208 12.2503C0.432338 12.1021 0.476396 11.9572 0.558816 11.834C0.641236 11.7108 0.75832 11.6147 0.895284 11.558C1.03225 11.5013 1.18294 11.4865 1.32834 11.5154C1.47374 11.5442 1.60732 11.6156 1.71221 11.7203L7.25221 17.2593L12.7912 11.7203C12.9326 11.5836 13.122 11.5079 13.3187 11.5096C13.5153 11.5112 13.7035 11.59 13.8426 11.729C13.9817 11.8679 14.0607 12.056 14.0625 12.2527C14.0643 12.4493 13.9888 12.6388 13.8522 12.7803L7.78221 18.8503C7.71256 18.92 7.62986 18.9753 7.53883 19.013C7.44781 19.0507 7.35024 19.0702 7.25171 19.0702C7.15318 19.0702 7.05561 19.0507 6.96458 19.013C6.87356 18.9753 6.79086 18.92 6.72121 18.8503L0.652207 12.7803C0.582455 12.7108 0.527115 12.6282 0.489362 12.5373C0.451609 12.4463 0.432186 12.3488 0.432208 12.2503Z" fill="#292D32"/>
<path d="M6.5 18.1503L6.5 1.32031C6.5 1.1214 6.57902 0.930635 6.71967 0.789982C6.86032 0.64933 7.05109 0.570312 7.25 0.570312C7.44891 0.570312 7.63968 0.64933 7.78033 0.789982C7.92098 0.930635 8 1.1214 8 1.32031L8 18.1503C8 18.3492 7.92098 18.54 7.78033 18.6806C7.63968 18.8213 7.44891 18.9003 7.25 18.9003C7.05109 18.9003 6.86032 18.8213 6.71967 18.6806C6.57902 18.54 6.5 18.3492 6.5 18.1503Z" fill="#292D32"/>
</svg>
