<svg width="15" height="20" viewBox="0 0 15 20" fill="none" xmlns="http://www.w3.org/2000/svg">
<path d="M14.0678 7.39031C14.0677 7.53855 14.0236 7.68342 13.9412 7.80664C13.8588 7.92986 13.7417 8.02588 13.6047 8.0826C13.4678 8.13931 13.3171 8.15416 13.1717 8.12527C13.0263 8.09639 12.8927 8.02506 12.7878 7.92031L7.24779 2.38131L1.70879 7.92031C1.5674 8.057 1.37799 8.13268 1.18134 8.13107C0.98469 8.12945 0.796542 8.05066 0.65742 7.91167C0.518298 7.77268 0.439332 7.58461 0.437531 7.38796C0.435731 7.19131 0.511239 7.00182 0.647792 6.86031L6.71779 0.790307C6.78744 0.720612 6.87014 0.665326 6.96117 0.627604C7.05219 0.589883 7.14976 0.570468 7.24829 0.570468C7.34682 0.570468 7.44439 0.589883 7.53542 0.627604C7.62644 0.665326 7.70914 0.720612 7.77879 0.790307L13.8478 6.86031C13.9175 6.92982 13.9729 7.01242 14.0106 7.10337C14.0484 7.19432 14.0678 7.29183 14.0678 7.39031Z" fill="#292D32"/>
<path d="M8 1.49031L8 18.3203C8 18.5192 7.92098 18.71 7.78033 18.8506C7.63968 18.9913 7.44891 19.0703 7.25 19.0703C7.05109 19.0703 6.86032 18.9913 6.71967 18.8506C6.57902 18.71 6.5 18.5192 6.5 18.3203L6.5 1.49031C6.5 1.2914 6.57902 1.10063 6.71967 0.959982C6.86032 0.81933 7.05109 0.740313 7.25 0.740313C7.44891 0.740313 7.63968 0.81933 7.78033 0.959982C7.92098 1.10063 8 1.2914 8 1.49031Z" fill="#292D32"/>
</svg>
