<svg width="19" height="14" viewBox="0 0 19 14" fill="none" xmlns="http://www.w3.org/2000/svg">
<path d="M6.82097 0.000567436C6.96921 0.000697824 7.11409 0.0447554 7.2373 0.127175C7.36052 0.209595 7.45655 0.32668 7.51326 0.463643C7.56997 0.600606 7.58482 0.751304 7.55594 0.896703C7.52705 1.0421 7.45573 1.17568 7.35097 1.28057L1.81197 6.82057L7.35097 12.3596C7.48766 12.501 7.56335 12.6904 7.56173 12.887C7.56011 13.0837 7.48133 13.2718 7.34233 13.4109C7.20334 13.5501 7.01527 13.629 6.81862 13.6308C6.62198 13.6326 6.43249 13.5571 6.29097 13.4206L0.220971 7.35057C0.151276 7.28092 0.0959896 7.19822 0.0582685 7.10719C0.0205475 7.01617 0.00113201 6.9186 0.00113201 6.82007C0.00113201 6.72154 0.0205475 6.62397 0.0582685 6.53294C0.0959896 6.44192 0.151276 6.35922 0.220971 6.28957L6.29097 0.220567C6.36048 0.150814 6.44309 0.0954743 6.53404 0.0577211C6.62499 0.019968 6.7225 0.000545079 6.82097 0.000567436Z" fill="#292D32"/>
<path d="M0.92 6.07031L17.75 6.07031C17.9489 6.07031 18.1397 6.14933 18.2803 6.28998C18.421 6.43064 18.5 6.6214 18.5 6.82031C18.5 7.01922 18.421 7.20999 18.2803 7.35064C18.1397 7.49129 17.9489 7.57031 17.75 7.57031L0.92 7.57031C0.721088 7.57031 0.530322 7.49129 0.389669 7.35064C0.249017 7.20999 0.17 7.01922 0.17 6.82031C0.17 6.6214 0.249017 6.43064 0.389669 6.28998C0.530322 6.14933 0.721088 6.07031 0.92 6.07031Z" fill="#292D32"/>
</svg>
