<svg xmlns="http://www.w3.org/2000/svg" width="18.5" height="13.64" viewBox="0 0 18.5 13.64">
  <g id="arrow-right" transform="translate(-2.75 -5.18)">
    <path id="Path_3" data-name="Path 3" d="M14.43,18.82a.75.75,0,0,1-.53-1.28L19.439,12,13.9,6.461A.75.75,0,0,1,14.96,5.4l6.07,6.07a.75.75,0,0,1,0,1.061L14.96,18.6A.748.748,0,0,1,14.43,18.82Z" fill="#292d32"/>
    <path id="Path_4" data-name="Path 4" d="M20.33,12.75H3.5a.75.75,0,0,1,0-1.5H20.33a.75.75,0,1,1,0,1.5Z" fill="#292d32"/>
  </g>
</svg>
