<svg xmlns="http://www.w3.org/2000/svg" width="25" height="25" viewBox="0 0 25 25">
  <g id="call" transform="translate(0 -0.394)">
    <g id="Group_104" data-name="Group 104" transform="translate(0 0.394)">
      <g id="Group_103" data-name="Group 103" transform="translate(0 0)">
        <path id="Path_201" data-name="Path 201" d="M24.439,20.167,20.578,16.3a2.01,2.01,0,0,0-2.838.054L15.795,18.3l-.384-.214a19.357,19.357,0,0,1-4.679-3.391A19.508,19.508,0,0,1,7.342,10c-.072-.131-.141-.256-.209-.376L8.438,8.315l.642-.644a2.019,2.019,0,0,0,.052-2.845L5.271.955a2.008,2.008,0,0,0-2.838.054l-1.088,1.1.03.03a6.31,6.31,0,0,0-.9,1.585,6.584,6.584,0,0,0-.4,1.608C-.431,9.564,1.5,13.435,6.741,18.689c7.245,7.261,13.084,6.713,13.336,6.686a6.512,6.512,0,0,0,1.609-.405,6.267,6.267,0,0,0,1.576-.895l.024.021,1.1-1.082A2.023,2.023,0,0,0,24.439,20.167Z" transform="translate(0 -0.394)" fill="#fa983a"/>
      </g>
    </g>
  </g>
</svg>
