<svg width="36" height="36" viewBox="0 0 36 36" fill="none" xmlns="http://www.w3.org/2000/svg">
<path d="M16.5 12.4H33.55C32.6833 10 31.2417 7.84167 29.225 5.925C27.2083 4.00833 24.95 2.73333 22.45 2.1L16.5 12.4ZM12.35 16.45L21 1.7C20.6 1.66667 20.0917 1.63333 19.475 1.6C18.8583 1.56667 18.3667 1.55 18 1.55C15.7 1.55 13.575 1.96667 11.625 2.8C9.675 3.63333 7.93333 4.8 6.4 6.3L12.35 16.45ZM2.05 22.15H13.85L5.45 7.35C4.18333 8.85 3.21667 10.5 2.55 12.3C1.88333 14.1 1.55 16 1.55 18C1.55 18.7 1.59167 19.4 1.675 20.1C1.75833 20.8 1.88333 21.4833 2.05 22.15ZM13.7 33.85L19.65 23.6H2.45C3.31667 26 4.76667 28.1583 6.8 30.075C8.83333 31.9917 11.1333 33.25 13.7 33.85ZM18 34.45C20.3 34.45 22.425 34.0333 24.375 33.2C26.325 32.3667 28.0667 31.2 29.6 29.7L23.65 19.55L15.1 34.25C15.4667 34.3167 15.9417 34.3667 16.525 34.4C17.1083 34.4333 17.6 34.45 18 34.45ZM30.6 28.65C31.6667 27.2833 32.575 25.65 33.325 23.75C34.075 21.85 34.45 19.9333 34.45 18C34.45 17.3 34.4083 16.6 34.325 15.9C34.2417 15.2 34.1167 14.5167 33.95 13.85H22.2L30.6 28.65ZM18 36C15.5333 36 13.2 35.525 11 34.575C8.8 33.625 6.89167 32.3417 5.275 30.725C3.65833 29.1083 2.375 27.2 1.425 25C0.475 22.8 0 20.4667 0 18C0 15.5 0.475 13.1583 1.425 10.975C2.375 8.79167 3.65833 6.89167 5.275 5.275C6.89167 3.65833 8.8 2.375 11 1.425C13.2 0.475 15.5333 0 18 0C20.5 0 22.8417 0.475 25.025 1.425C27.2083 2.375 29.1083 3.65833 30.725 5.275C32.3417 6.89167 33.625 8.79167 34.575 10.975C35.525 13.1583 36 15.5 36 18C36 20.4667 35.525 22.8 34.575 25C33.625 27.2 32.3417 29.1083 30.725 30.725C29.1083 32.3417 27.2083 33.625 25.025 34.575C22.8417 35.525 20.5 36 18 36Z" fill="#08215D"/>
</svg>
