<svg xmlns="http://www.w3.org/2000/svg" width="8" height="14" viewBox="0 0 8 14">
  <g id="facebook" transform="translate(-22.077)">
    <path id="Path_196" data-name="Path 196" d="M29.776,0,27.857,0a3.278,3.278,0,0,0-3.549,3.445V5.034H22.379a.294.294,0,0,0-.3.286v2.3a.294.294,0,0,0,.3.285h1.929v5.808a.294.294,0,0,0,.3.285h2.517a.294.294,0,0,0,.3-.285V7.907h2.256a.294.294,0,0,0,.3-.285V5.32a.278.278,0,0,0-.088-.2.311.311,0,0,0-.214-.084H27.429V3.687c0-.647.163-.976,1.054-.976h1.293a.294.294,0,0,0,.3-.285V.288A.294.294,0,0,0,29.776,0Z" transform="translate(0)" fill="#ffce9f"/>
  </g>
</svg>
