<svg xmlns="http://www.w3.org/2000/svg" width="25" height="25" viewBox="0 0 25 25">
  <g id="global" transform="translate(0 -0.316)">
    <path id="Path_206" data-name="Path 206" d="M231.816,349.674c1.912-.272,3.588-2.267,4.642-5.214a22.694,22.694,0,0,0-4.642-.546Zm0,0" transform="translate(-218.869 -324.358)" fill="#fa983a"/>
    <path id="Path_207" data-name="Path 207" d="M279.888,362.139c.113-.033.226-.066.337-.1.094-.03.187-.063.28-.1.11-.038.219-.077.329-.118.093-.035.185-.073.277-.11l.318-.134c.092-.04.183-.083.274-.125s.206-.1.308-.15.179-.092.268-.14.2-.108.3-.165.176-.1.263-.154l.289-.179c.086-.055.171-.11.256-.167s.187-.13.28-.2.166-.119.247-.179.181-.14.271-.212.159-.127.237-.192.175-.151.261-.228.152-.134.226-.2.168-.162.252-.244.145-.141.215-.214l.039-.042a15.018,15.018,0,0,0-3.061-1.178,11.087,11.087,0,0,1-2.856,4.637l.109-.026C279.7,362.2,279.794,362.167,279.888,362.139Zm0,0" transform="translate(-263.887 -337.292)" fill="#fa983a"/>
    <path id="Path_208" data-name="Path 208" d="M341.818,231.684h-5.357a23.172,23.172,0,0,1-.9,6.181,15.54,15.54,0,0,1,3.391,1.349,12.483,12.483,0,0,0,2.868-7.531Zm0,0" transform="translate(-316.818 -218.409)" fill="#fa983a"/>
    <path id="Path_209" data-name="Path 209" d="M231.816,114.9h5.8a22.352,22.352,0,0,0-.88-5.961,23.534,23.534,0,0,1-4.923.587Zm0,0" transform="translate(-218.869 -102.543)" fill="#fa983a"/>
    <path id="Path_210" data-name="Path 210" d="M231.816.316v5.76a22.708,22.708,0,0,0,4.642-.546C235.4,2.583,233.728.588,231.816.316Zm0,0" transform="translate(-218.869)" fill="#fa983a"/>
    <path id="Path_211" data-name="Path 211" d="M231.816,237.058a23.549,23.549,0,0,1,4.923.587,22.352,22.352,0,0,0,.88-5.962h-5.8Zm0,0" transform="translate(-218.869 -218.411)" fill="#fa983a"/>
    <path id="Path_212" data-name="Path 212" d="M338.949,80.844a15.54,15.54,0,0,1-3.391,1.349,23.17,23.17,0,0,1,.9,6.181h5.357a12.487,12.487,0,0,0-2.868-7.531Zm0,0" transform="translate(-316.818 -76.017)" fill="#fa983a"/>
    <path id="Path_213" data-name="Path 213" d="M285.378,10.254l-.038-.041c-.071-.073-.144-.143-.216-.214s-.166-.164-.251-.244-.151-.134-.226-.2-.173-.154-.262-.228-.156-.128-.235-.19-.181-.144-.273-.214-.163-.12-.245-.179-.187-.134-.282-.2-.168-.111-.253-.165-.193-.123-.291-.182-.173-.1-.26-.152-.2-.113-.3-.167-.179-.093-.268-.138-.206-.1-.313-.151q-.134-.064-.272-.124c-.106-.047-.213-.089-.319-.134s-.184-.075-.277-.11c-.108-.041-.218-.08-.328-.118-.093-.033-.186-.065-.28-.1-.112-.036-.223-.069-.338-.1-.093-.027-.186-.055-.28-.08l-.109-.027a11.088,11.088,0,0,1,2.856,4.637,15,15,0,0,0,3.065-1.179Zm0,0" transform="translate(-263.85 -6.118)" fill="#fa983a"/>
    <path id="Path_214" data-name="Path 214" d="M0,88.375H5.357a23.18,23.18,0,0,1,.9-6.181,15.52,15.52,0,0,1-3.391-1.349A12.483,12.483,0,0,0,0,88.375Zm0,0" transform="translate(0 -76.017)" fill="#fa983a"/>
    <path id="Path_215" data-name="Path 215" d="M137.337,349.674v-5.76a22.711,22.711,0,0,0-4.642.546c1.054,2.947,2.73,4.942,4.642,5.214Zm0,0" transform="translate(-125.284 -324.358)" fill="#fa983a"/>
    <path id="Path_216" data-name="Path 216" d="M117.723,231.684h-5.8a22.344,22.344,0,0,0,.88,5.962,23.518,23.518,0,0,1,4.923-.587Zm0,0" transform="translate(-105.67 -218.412)" fill="#fa983a"/>
    <path id="Path_217" data-name="Path 217" d="M137.337.316c-1.912.272-3.588,2.267-4.642,5.214a22.677,22.677,0,0,0,4.642.546Zm0,0" transform="translate(-125.284)" fill="#fa983a"/>
    <path id="Path_218" data-name="Path 218" d="M117.724,109.528a23.534,23.534,0,0,1-4.923-.587,22.342,22.342,0,0,0-.88,5.961h5.8Zm0,0" transform="translate(-105.671 -102.542)" fill="#fa983a"/>
    <path id="Path_219" data-name="Path 219" d="M68.107,6.789,68,6.815c-.095.025-.188.053-.282.081-.112.033-.223.066-.336.1-.095.031-.188.063-.282.1-.109.039-.219.077-.327.118s-.185.073-.278.111l-.318.134c-.092.04-.183.083-.274.125s-.206.1-.308.15-.179.092-.268.14-.2.109-.3.165-.177.1-.264.154-.193.119-.289.179-.171.11-.256.168-.187.13-.28.2-.166.119-.247.179-.179.14-.271.212-.159.127-.237.192-.174.15-.26.226-.153.134-.228.2-.168.161-.25.243-.145.141-.216.214l-.039.042a15,15,0,0,0,3.061,1.178,11.083,11.083,0,0,1,2.854-4.634Zm0,0" transform="translate(-58.718 -6.111)" fill="#fa983a"/>
    <path id="Path_220" data-name="Path 220" d="M62.481,359c.083.082.166.164.251.244s.151.134.227.2.173.154.262.228.156.127.235.19.179.144.273.214.162.119.244.179.188.134.283.2.168.111.253.165.193.123.291.182.173.1.26.152.2.113.3.166.179.093.268.138.206.1.313.151q.134.063.272.124c.106.047.212.089.319.134s.184.075.277.11c.108.042.218.081.328.118.093.033.186.065.28.1.112.036.223.069.338.1.093.027.186.055.28.08l.109.027a11.09,11.09,0,0,1-2.856-4.637,15,15,0,0,0-3.061,1.179l.039.041c.067.072.139.143.212.214Zm0,0" transform="translate(-58.755 -337.244)" fill="#fa983a"/>
    <path id="Path_221" data-name="Path 221" d="M2.868,239.214a15.54,15.54,0,0,1,3.391-1.349,23.179,23.179,0,0,1-.9-6.181H0a12.485,12.485,0,0,0,2.868,7.531Zm0,0" transform="translate(0 -218.408)" fill="#fa983a"/>
  </g>
</svg>
