<svg xmlns="http://www.w3.org/2000/svg" width="60" height="60" viewBox="0 0 60 60">
  <g id="hot-stone" transform="translate(0 -0.048)">
    <g id="Group_24" data-name="Group 24" transform="translate(0 0.048)">
      <g id="Group_21" data-name="Group 21" transform="translate(5.648 4.47)">
        <g id="Group_18" data-name="Group 18" transform="translate(9.848)">
          <path id="Path_62" data-name="Path 62" d="M79.51,27.011a1.49,1.49,0,0,1-.732-2.788,16.742,16.742,0,0,1,7.664-1.669,1.49,1.49,0,0,1-.01,2.979h-.118a13.788,13.788,0,0,0-6.074,1.286A1.479,1.479,0,0,1,79.51,27.011Z" transform="translate(-78.019 -22.553)" fill="#fa983a"/>
        </g>
        <g id="Group_19" data-name="Group 19" transform="translate(4.438 13.362)">
          <path id="Path_63" data-name="Path 63" d="M52.271,96.668A1.49,1.49,0,0,1,51,94.4c1.965-3.224,8.258-4.621,13.617-4.575a1.49,1.49,0,0,1-.013,2.979h-.013c-5.68-.051-10.082,1.561-11.048,3.146A1.489,1.489,0,0,1,52.271,96.668Z" transform="translate(-50.782 -89.827)" fill="#fa983a"/>
        </g>
        <g id="Group_20" data-name="Group 20" transform="translate(0 31.997)">
          <path id="Path_64" data-name="Path 64" d="M29.926,192.207a1.49,1.49,0,0,1-1.291-2.232c2.558-4.455,10.916-6.377,18.076-6.318a1.49,1.49,0,0,1-.013,2.979h-.014c-7.2-.076-13.849,2.007-15.465,4.822A1.488,1.488,0,0,1,29.926,192.207Z" transform="translate(-28.437 -183.655)" fill="#fa983a"/>
        </g>
      </g>
      <g id="Group_23" data-name="Group 23">
        <path id="Path_65" data-name="Path 65" d="M58.9,45.694a9.163,9.163,0,0,0-3-1.858c1.263-1.575,2.168-3.447,1.748-5.052a2.981,2.981,0,0,0-1.686-1.992,3.227,3.227,0,0,0-.156-.312A3.055,3.055,0,0,0,53.1,34.962a4.172,4.172,0,0,0-1.051.142,9.184,9.184,0,0,0-3.123,1.679A9.183,9.183,0,0,0,47.1,33.746a3.422,3.422,0,0,0-2.463-1.127,3.005,3.005,0,0,0-.758.1,3.053,3.053,0,0,0-1.008.467A3.061,3.061,0,0,0,40.029,34.5,30.065,30.065,0,0,0,34.4,32.452c5.167-1.851,8.518-5.059,8.518-8.776,0-4.052-3.982-7.5-9.957-9.243.24-.107.477-.218.7-.335,2.949-1.511,4.573-3.634,4.573-5.979S36.611,3.65,33.663,2.139A21.879,21.879,0,0,0,23.9.048a21.879,21.879,0,0,0-9.762,2.091C11.189,3.65,9.565,5.773,9.565,8.118s1.624,4.468,4.573,5.979c.228.117.464.228.7.335-5.974,1.745-9.956,5.191-9.956,9.243,0,3.711,3.342,6.913,8.494,8.766C5.392,34.518,0,38.92,0,44.132,0,51.405,10.5,57.1,23.9,57.1a41.142,41.142,0,0,0,12-1.709,2.962,2.962,0,0,0,.754.483,3.192,3.192,0,0,0,.157.313,3.055,3.055,0,0,0,2.708,1.517,4.16,4.16,0,0,0,1.052-.142,9.174,9.174,0,0,0,3.122-1.678,9.183,9.183,0,0,0,1.828,3.038,3.422,3.422,0,0,0,2.463,1.126,3,3,0,0,0,.757-.1,3.051,3.051,0,0,0,1.009-.468,3.066,3.066,0,0,0,1.109-.087,3.241,3.241,0,0,0,2.3-2.474,9.187,9.187,0,0,0,.108-3.546,11.9,11.9,0,0,0,1.76.138h0a7.1,7.1,0,0,0,1.783-.2,3.107,3.107,0,0,0,2.59-3.389,2.952,2.952,0,0,0,.49-1A3.241,3.241,0,0,0,58.9,45.694ZM12.544,8.118c0-2.408,4.664-5.091,11.357-5.091S35.257,5.71,35.257,8.118,30.593,13.209,23.9,13.209,12.544,10.526,12.544,8.118ZM12.187,28.7C9.44,27.29,7.865,25.459,7.865,23.675s1.576-3.615,4.322-5.022A26.3,26.3,0,0,1,23.9,16.188a26.3,26.3,0,0,1,11.713,2.466c2.747,1.407,4.322,3.237,4.322,5.022S38.361,27.29,35.614,28.7A26.3,26.3,0,0,1,23.9,31.162,26.3,26.3,0,0,1,12.187,28.7ZM2.978,44.132c0-5.415,9.581-9.991,20.922-9.991a34.048,34.048,0,0,1,15.338,3.287,11.742,11.742,0,0,0,.114,1.861,11.971,11.971,0,0,0-1.761-.138,7.117,7.117,0,0,0-1.784.2A3.212,3.212,0,0,0,33.2,42.395a3.246,3.246,0,0,0,.017.348,2.98,2.98,0,0,0-.5,2.563c.419,1.6,2.124,2.793,3.994,3.547a8.157,8.157,0,0,0-1.821,3.73,38.211,38.211,0,0,1-11,1.54C12.559,54.123,2.978,49.548,2.978,44.132Zm53.305,4.945a1.539,1.539,0,0,0,.156,1.14s0,.011,0,.021c0,.034-.122.126-.382.194a4.13,4.13,0,0,1-1.03.105h0a10.73,10.73,0,0,1-3.269-.579,1.49,1.49,0,0,0-1.892,1.871,8.664,8.664,0,0,1,.421,4.306c-.079.29-.174.376-.186.379a1.6,1.6,0,0,0-1.179-.158,1.35,1.35,0,0,0-.939.712h0a.746.746,0,0,1-.344-.241,8.665,8.665,0,0,1-1.74-3.962,1.489,1.489,0,0,0-1.066-1.142,1.472,1.472,0,0,0-.394-.053,1.488,1.488,0,0,0-1.106.492,8.39,8.39,0,0,1-3.517,2.518c-.314.072-.435,0-.435-.009a1.5,1.5,0,0,0-.423-1.067,1.7,1.7,0,0,0-1.11-.475c-.091-.346.4-1.534,1.566-2.86a11.612,11.612,0,0,1,1.021-1.027,1.49,1.49,0,0,0-.684-2.573c-3.991-.824-4.149-2.14-4.151-2.139a1.514,1.514,0,0,0,.739-.939,1.487,1.487,0,0,0-.155-1.141.179.179,0,0,1,0-.021c0-.034,1.352-1.051,4.682.28a1.435,1.435,0,0,0,1.522-.352,1.49,1.49,0,0,0,.37-1.518,8.669,8.669,0,0,1-.422-4.306c.074-.272.167-.375.185-.38l.022,0h0a1.5,1.5,0,0,0,2.076-.544l.024-.007a.746.746,0,0,1,.344.241,8.67,8.67,0,0,1,1.74,3.962,1.489,1.489,0,0,0,2.565.7,9.5,9.5,0,0,1,3.518-2.519.535.535,0,0,1,.434.009,1.491,1.491,0,0,0,.423,1.068,2.834,2.834,0,0,0,1.1.451s.6,1.127-2.575,3.908A1.489,1.489,0,0,0,52.854,46a8.656,8.656,0,0,1,3.932,1.787c.2.2.24.33.236.347A1.425,1.425,0,0,0,56.283,49.077Z" transform="translate(0 -0.048)" fill="#fa983a"/>
        <g id="Group_22" data-name="Group 22" transform="translate(41.658 41.634)">
          <path id="Path_66" data-name="Path 66" d="M214.475,218.971a4.651,4.651,0,1,1,4.445-3.286A4.653,4.653,0,0,1,214.475,218.971Zm0-6.324a1.674,1.674,0,1,0,.491.074A1.663,1.663,0,0,0,214.473,212.647Z" transform="translate(-209.823 -209.668)" fill="#fa983a"/>
        </g>
      </g>
    </g>
  </g>
</svg>
