<svg id="hydro-power" xmlns="http://www.w3.org/2000/svg" width="64" height="60" viewBox="0 0 64 60">
  <path id="Path_59" data-name="Path 59" d="M289.722,134.59c.282-.458,11.358-18.715,11.358-18.715V91.012h-1.872a9.461,9.461,0,0,0-9.486,9.361v8.44l-.295.412a8.362,8.362,0,0,0-11.312,1.954L271,120.665v19.149h18.722Zm-3.744-1.04v2.521H274.744V121.913l6.366-8.488a4.619,4.619,0,0,1,6.138-1.151l-6.539,9.155,3.047,2.176,9.71-13.594v-9.639a5.719,5.719,0,0,1,3.869-5.3v19.751Zm0,0" transform="translate(-237.08 -79.814)" fill="#fa983a"/>
  <path id="Path_60" data-name="Path 60" d="M11.358,134.589v5.225H30.08V120.664l-7.115-9.486a8.362,8.362,0,0,0-11.312-1.954l-.295-.413v-8.439a9.461,9.461,0,0,0-9.486-9.361H0v24.862s11.076,18.257,11.358,18.715ZM3.744,95.075a5.719,5.719,0,0,1,3.869,5.3v9.639l9.71,13.594,3.047-2.176-6.54-9.155a4.619,4.619,0,0,1,6.139,1.151l6.366,8.488v14.157H15.1v-2.521L3.744,114.827Zm0,0" transform="translate(0 -79.814)" fill="#fa983a"/>
  <path id="Path_61" data-name="Path 61" d="M188.467,18.848c0-4.238-4.573-10.532-9.515-16.7L177.233,0l-1.718,2.147C170.573,8.317,166,14.61,166,18.848a11.233,11.233,0,0,0,22.467,0Zm-11.233,7.489a7.5,7.5,0,0,1-7.489-7.489c0-2.99,4.754-9.366,7.489-12.845,2.735,3.479,7.489,9.855,7.489,12.845A7.5,7.5,0,0,1,177.233,26.337Zm0,0" transform="translate(-145.233)" fill="#fa983a"/>
</svg>
