<svg id="instagram" xmlns="http://www.w3.org/2000/svg" width="14" height="14" viewBox="0 0 14 14">
  <path id="Path_197" data-name="Path 197" d="M9.829,0H4.171A4.175,4.175,0,0,0,0,4.171V9.829A4.175,4.175,0,0,0,4.171,14H9.829A4.175,4.175,0,0,0,14,9.829V4.171A4.175,4.175,0,0,0,9.829,0Zm2.762,9.829a2.762,2.762,0,0,1-2.762,2.762H4.171A2.762,2.762,0,0,1,1.408,9.829V4.171A2.762,2.762,0,0,1,4.171,1.408H9.829a2.762,2.762,0,0,1,2.762,2.762V9.829Z" fill="#ffce9f"/>
  <path id="Path_198" data-name="Path 198" d="M136.621,133a3.621,3.621,0,1,0,3.621,3.621A3.625,3.625,0,0,0,136.621,133Zm0,5.833a2.213,2.213,0,1,1,2.213-2.213A2.212,2.212,0,0,1,136.621,138.833Z" transform="translate(-129.621 -129.621)" fill="#ffce9f"/>
  <circle id="Ellipse_1" data-name="Ellipse 1" cx="0.868" cy="0.868" r="0.868" transform="translate(9.76 2.539)" fill="#ffce9f"/>
</svg>
