<svg xmlns="http://www.w3.org/2000/svg" width="39.123" height="48.75" viewBox="0 0 39.123 48.75">
  <g id="location" transform="translate(-0.751 -0.625)">
    <path id="Path_11" data-name="Path 11" d="M20.32,30.125A2.9,2.9,0,0,1,19.448,30l-.03-.01A15.331,15.331,0,0,1,13.869,26.2a12.141,12.141,0,0,1-3.494-8.4,6.082,6.082,0,0,1,5.965-6.179,5.809,5.809,0,0,1,3.972,1.562,5.809,5.809,0,0,1,3.972-1.562A6.082,6.082,0,0,1,30.25,17.8a12.2,12.2,0,0,1-3.5,8.4,15.3,15.3,0,0,1-5.542,3.789l-.011,0A2.759,2.759,0,0,1,20.32,30.125ZM20.074,28.1a1.013,1.013,0,0,0,.246.026.911.911,0,0,0,.22-.022c2.006-.726,7.691-4.159,7.71-10.3a4.08,4.08,0,0,0-3.965-4.175,3.889,3.889,0,0,0-3.163,1.651,1,1,0,0,1-1.618,0,3.889,3.889,0,0,0-3.163-1.651A4.081,4.081,0,0,0,12.375,17.8C12.375,23.927,18.053,27.363,20.074,28.1Z" fill="#fff"/>
    <path id="Path_12" data-name="Path 12" d="M20.321.625A19.716,19.716,0,0,1,32.184,4.541a19.613,19.613,0,0,1,7.241,11.725c1.134,5.37.116,11.1-3.024,17.033a54.518,54.518,0,0,1-9.427,12.43c-2.42,2.486-4.527,3.645-6.629,3.645s-4.22-1.158-6.674-3.643A54.852,54.852,0,0,1,4.219,33.3c-3.153-5.94-4.163-11.671-3-17.035A19.613,19.613,0,0,1,8.459,4.541,19.716,19.716,0,0,1,20.321.625Zm.024,46.75c1.526,0,3.178-.967,5.2-3.043C32.216,37.543,39.7,27.24,37.469,16.685A17.145,17.145,0,0,0,20.321,2.625,17.147,17.147,0,0,0,3.172,16.689C1.346,25.122,5.358,34.421,15.1,44.328,17.148,46.406,18.816,47.375,20.345,47.375Z" fill="#fff"/>
  </g>
</svg>
