<svg xmlns="http://www.w3.org/2000/svg" width="59.996" height="60" viewBox="0 0 59.996 60">
  <g id="padmasana" transform="translate(0)">
    <path id="Path_194" data-name="Path 194" d="M113.922,430.235a1.172,1.172,0,1,0-.829-.343A1.181,1.181,0,0,0,113.922,430.235Zm0,0" transform="translate(-99.537 -377.748)" fill="#fa983a"/>
    <path id="Path_195" data-name="Path 195" d="M58.825,57.656H53.033a7.571,7.571,0,0,0,1.5-2.322,7.462,7.462,0,0,0-.066-5.88,7.672,7.672,0,0,0-.408-.8A4.465,4.465,0,0,0,55,48.331a4.359,4.359,0,0,0,2.509-3.969,1.172,1.172,0,0,0-.406-.887l-8.992-7.759L44.727,25.663a11.289,11.289,0,0,0-9.412-7.622,7.348,7.348,0,0,0,2.062-5.107V11.4a7.365,7.365,0,0,0-2.66-5.667c0-.006,0-.012,0-.018v-1a4.717,4.717,0,1,0-9.434,0v1c0,.006,0,.012,0,.018A7.364,7.364,0,0,0,22.624,11.4v1.536a7.346,7.346,0,0,0,2.062,5.107,11.287,11.287,0,0,0-9.412,7.622L11.894,35.716,2.9,43.475a1.171,1.171,0,0,0-.406.887A4.358,4.358,0,0,0,5,48.331a4.472,4.472,0,0,0,.943.326,7.62,7.62,0,0,0-.408.8,7.465,7.465,0,0,0-.066,5.881,7.574,7.574,0,0,0,1.5,2.321h-5.8a1.172,1.172,0,0,0,0,2.344H58.825a1.172,1.172,0,0,0,0-2.344ZM38.94,35.916l.47,1.121a12.08,12.08,0,0,0,3.5,4.679l2.254,1.837L38.94,41.245ZM30,2.344a2.375,2.375,0,0,1,2.351,2.064,7.345,7.345,0,0,0-4.7,0A2.375,2.375,0,0,1,30,2.344ZM24.968,11.4a5.033,5.033,0,1,1,10.065,0v1.536a5.033,5.033,0,1,1-10.065,0ZM4.894,44.851l8.773-7.57a1.175,1.175,0,0,0,.346-.514L17.5,26.411a8.947,8.947,0,0,1,8.487-6.1h8.035a8.947,8.947,0,0,1,8.487,6.1l3.483,10.356a1.174,1.174,0,0,0,.345.514l8.773,7.57a2.055,2.055,0,0,1-3.291,1.1L44.389,39.9a9.724,9.724,0,0,1-2.817-3.768L38.94,29.853V26.738a1.172,1.172,0,0,0-2.344,0v14.15H23.4V26.738a1.172,1.172,0,0,0-2.344,0v3.127l-2.627,6.266A9.728,9.728,0,0,1,15.612,39.9L8.185,45.952a2.054,2.054,0,0,1-3.29-1.1Zm16.161-3.6-6.217,2.306,2.254-1.837a12.08,12.08,0,0,0,3.5-4.679l.465-1.109ZM7.64,54.443a5.182,5.182,0,0,1,2.991-6.829l11.812-4.382H37.558l11.813,4.382a5.185,5.185,0,0,1-1.6,10.042h-.337a5.215,5.215,0,0,1-1.668-.327L35.22,53.407h1.565a1.172,1.172,0,0,0,.954-1.852l-1.157-1.622,8.71,2.508a1.172,1.172,0,1,0,.649-2.252l-13.211-3.8a7.78,7.78,0,0,0-5.5-.317l-9.081,2.842a1.172,1.172,0,0,0,.7,2.237L27.929,48.3a5.438,5.438,0,0,1,3.822.211,1.246,1.246,0,0,0,.133.06,5.449,5.449,0,0,1,2.109,1.766l.515.723H31.29a1.176,1.176,0,0,0-.409.074L14.24,57.329a5.219,5.219,0,0,1-1.665.327h-.342A5.161,5.161,0,0,1,7.64,54.443ZM30,53.966l9.918,3.69H20.082Zm0,0" fill="#fa983a"/>
  </g>
</svg>
