<svg width="20" height="20" viewBox="0 0 20 20" fill="none" xmlns="http://www.w3.org/2000/svg">
<path d="M19.9688 15.1174L19.0605 19.0549C18.933 19.6116 18.4438 20.001 17.8707 20.001C8.01562 20.0002 0 11.9846 0 2.12914C0 1.55648 0.389414 1.06664 0.946094 0.939683L4.88359 0.0314799C5.45703 -0.101411 6.04297 0.196246 6.28125 0.739292L8.09844 4.97757C8.31086 5.47679 8.16758 6.05843 7.74766 6.4014L5.64453 8.09007C6.97188 10.794 9.17031 12.9924 11.875 14.3205L13.5969 12.219C13.9362 11.7979 14.5223 11.6522 15.0215 11.8684L19.2598 13.6852C19.7695 13.9534 20.1016 14.5471 19.9688 15.1174Z" fill="#1C45A8"/>
</svg>
