<svg width="50" height="36" viewBox="0 0 50 36" fill="none" xmlns="http://www.w3.org/2000/svg">
<path d="M49.7436 4.10635V0.0239594C40.3846 -0.48634 27.3077 7.16814 27.3077 21.7116C27.3077 31.5349 33.3333 36 39.2308 36C45.2564 36 50 31.2797 50 25.5389C50 19.6705 45.2564 14.9502 39.4872 14.9502C35.1282 14.9502 40.5128 3.97877 49.7436 4.10635ZM0 21.7116C0 31.5349 6.02564 36 11.9231 36C17.9487 36 22.6923 31.2797 22.6923 25.5389C22.6923 19.6705 17.9487 14.9502 12.1795 14.9502C7.82051 14.9502 13.2051 3.97877 22.4359 4.10635V0.0239594C13.0769 -0.48634 0 7.16814 0 21.7116Z" fill="#08215D"/>
</svg>
