<svg xmlns="http://www.w3.org/2000/svg" width="66" height="60" viewBox="0 0 66 60">
  <g id="spa" transform="translate(0 -20.004)">
    <g id="Group_13" data-name="Group 13" transform="translate(0 20.004)">
      <g id="Group_12" data-name="Group 12">
        <path id="Path_58" data-name="Path 58" d="M64.9,69.095H63.677a7.569,7.569,0,0,0,.148-10.766,7.672,7.672,0,0,0-1.578-1.234A7.618,7.618,0,0,0,58.3,42.913H48.4V35.276A1.1,1.1,0,0,0,47.132,34.2L34.1,36.186V35.167a5.476,5.476,0,0,0,4.4-5.345c0-4.761-4.529-9.308-4.722-9.5a1.106,1.106,0,0,0-1.555,0c-.194.191-4.722,4.738-4.722,9.5a5.476,5.476,0,0,0,4.4,5.345v1.356l-13.367,2.04A1.094,1.094,0,0,0,17.6,39.64V51.794a12.019,12.019,0,0,0-2.75-2.188,1.108,1.108,0,0,0-1.1,0,12.05,12.05,0,0,0-5.94,8.821,12.035,12.035,0,0,0-2.31-.241,12.1,12.1,0,0,0-1.452.094,1.1,1.1,0,0,0-.88.655A11.933,11.933,0,0,0,7.356,73.458H0V75.64H2.62l1.9,3.76A1.1,1.1,0,0,0,5.5,80H47.3a1.1,1.1,0,0,0,1.1-1.091V75.64h7.02l1.9,3.76a1.1,1.1,0,0,0,.984.6h4.4a1.1,1.1,0,0,0,1.1-1.091V75.64h1.1A1.1,1.1,0,0,0,66,74.549V70.186A1.1,1.1,0,0,0,64.9,69.095ZM63.8,63.64a5.484,5.484,0,0,1-5.5,5.455H38.5a5.455,5.455,0,1,1,0-10.909H52.8a3.273,3.273,0,1,1,0,6.545h-11a1.091,1.091,0,1,1,0-2.182h7.7V60.367H41.8a3.273,3.273,0,1,0,0,6.545h11a5.484,5.484,0,0,0,5.5-5.455,5.369,5.369,0,0,0-1.129-3.273H58.3A5.484,5.484,0,0,1,63.8,63.64ZM55,45.095a3.273,3.273,0,1,1,0,6.545H44a1.091,1.091,0,1,1,0-2.182h7.7V47.276H44a3.273,3.273,0,1,0,0,6.545H55a5.484,5.484,0,0,0,5.5-5.455,5.373,5.373,0,0,0-1.016-3.137A5.45,5.45,0,0,1,58.3,56H42.9a5.455,5.455,0,1,1,0-10.909ZM29.7,29.822c0-2.789,2.117-5.69,3.3-7.091,1.184,1.4,3.3,4.295,3.3,7.091a3.275,3.275,0,0,1-2.2,3.072V30.913H31.9v1.981A3.275,3.275,0,0,1,29.7,29.822ZM14.3,51.834a9.839,9.839,0,0,1,4.339,7.207,12.132,12.132,0,0,0-4.33,2.923,12.18,12.18,0,0,0-4.35-2.905A9.836,9.836,0,0,1,14.3,51.834Zm5.518,9.088a9.978,9.978,0,0,1,3.282-.555c.173,0,.353.007.541.019A9.8,9.8,0,0,1,17.582,72.9a9.979,9.979,0,0,1-3.282.555c-.173,0-.353-.007-.541-.019A9.8,9.8,0,0,1,19.818,60.922ZM4.4,63.64a9.687,9.687,0,0,1,.559-3.254c.188-.012.368-.019.541-.019a9.833,9.833,0,0,1,7.427,3.346,11.732,11.732,0,0,0-1.573,9.3A9.828,9.828,0,0,1,4.4,63.64ZM22.42,77.822H6.18L5.08,75.64H23.52Zm10.58,0H24.88l1.1-2.182H28.6V73.458H21.235a11.925,11.925,0,0,0,4.2-14.523,1.1,1.1,0,0,0-.88-.655,11.687,11.687,0,0,0-3.759.131,11.875,11.875,0,0,0-1.064-3.5h.07V40.576l26.4-4.028v6.364H42.9a7.614,7.614,0,0,0-5.313,13.15,7.6,7.6,0,0,0-4.465,13.032H31.9a1.1,1.1,0,0,0-1.1,1.091v4.364a1.1,1.1,0,0,0,1.1,1.091H33Zm4.82,0H35.2V75.64h3.72Zm8.38,0h-5.92l1.1-2.182H46.2Zm15.4,0h-2.62l-1.1-2.182H61.6Zm2.2-4.364H33V71.276H63.8Z" transform="translate(0 -20.004)" fill="#fa983a"/>
      </g>
    </g>
    <g id="Group_15" data-name="Group 15" transform="translate(21.819 42.491)">
      <g id="Group_14" data-name="Group 14" transform="translate(0 0)">
        <rect id="Rectangle_6" data-name="Rectangle 6" width="2.403" height="9.614" fill="#fa983a"/>
      </g>
    </g>
    <g id="Group_17" data-name="Group 17" transform="translate(21.819 53.83)">
      <g id="Group_16" data-name="Group 16" transform="translate(0 0)">
        <rect id="Rectangle_7" data-name="Rectangle 7" width="2.403" height="2.403" fill="#fa983a"/>
      </g>
    </g>
  </g>
</svg>
