<svg xmlns="http://www.w3.org/2000/svg" width="17" height="14" viewBox="0 0 17 14">
  <path id="twitter" d="M16.73,36.12a6.779,6.779,0,0,1-1.172.391,3.613,3.613,0,0,0,.965-1.521h0a.191.191,0,0,0-.28-.221h0a6.8,6.8,0,0,1-1.792.733.461.461,0,0,1-.112.014.478.478,0,0,1-.314-.119,3.686,3.686,0,0,0-2.425-.906,3.955,3.955,0,0,0-1.161.177A3.53,3.53,0,0,0,8.045,37.2a3.833,3.833,0,0,0-.087,1.336.129.129,0,0,1-.033.1.136.136,0,0,1-.1.045H7.811A9.639,9.639,0,0,1,1.206,35.19h0a.193.193,0,0,0-.314.024h0a3.605,3.605,0,0,0,.6,4.411,3.3,3.3,0,0,1-.836-.32h0a.192.192,0,0,0-.285.164h0a3.631,3.631,0,0,0,2.141,3.347H2.43a3.33,3.33,0,0,1-.617-.058h0A.19.19,0,0,0,1.594,43h0a3.663,3.663,0,0,0,2.9,2.474A6.811,6.811,0,0,1,.707,46.615H.284a.28.28,0,0,0-.274.21.286.286,0,0,0,.139.318A10.137,10.137,0,0,0,5.2,48.491a10.284,10.284,0,0,0,4.32-.907,9.532,9.532,0,0,0,3.161-2.345,10.26,10.26,0,0,0,1.935-3.209,10.048,10.048,0,0,0,.658-3.512v-.055a.615.615,0,0,1,.233-.481A7.2,7.2,0,0,0,16.967,36.4h0a.19.19,0,0,0-.237-.279Z" transform="translate(0 -34.491)" fill="#ffce9f"/>
</svg>
